<?xml version='1.0' encoding='UTF-8'?>
<svg x="0px" y="0px" viewBox="0 0 32 32" version="1.1" xmlns="http://www.w3.org/2000/svg" xmlns:xlink="http://www.w3.org/1999/xlink" xml:space="preserve" id="Create_Pie_3D_Chart">
  <path d="M0,12v6c0,5.3,6.2,9.6,14,10v-6C6.2,21.6,0,17.3,0,12z" fill="#D11C1C" class="Red" />
  <path d="M16,22v6c3-0.1,5.7-0.9,8-2v-6l0,0C21.7,21.1,19,21.8,16,22z" fill="#FFB115" class="Yellow" />
  <path d="M26,18.8v6c2.5-1.8,4-4.2,4-6.8v-6C30,14.6,28.5,17,26,18.8z" fill="#1177D7" class="Blue" />
  <g opacity="0.65" class="st0">
    <path d="M14,12v-0.6l10.1-7.4C21.6,2.8,18.4,2,15,2C6.7,2,0,6.5,0,12c0,5.3,6.2,9.6,14,10v-8.1v-1.3V12z" fill="#D11C1C" opacity="0.65" class="Red" />
    <path d="M26,5.2L16.6,12l9.4,6.8c2.5-1.8,4-4.2,4-6.8C30,9.4,28.5,7,26,5.2z" fill="#1177D7" opacity="0.65" class="Blue" />
    <path d="M16,14V22c3-0.1,5.7-0.8,8-2L16,14z" fill="#FFB115" opacity="0.65" class="Yellow" />
  </g>
</svg>