<?xml version='1.0' encoding='UTF-8'?>
<svg x="0px" y="0px" viewBox="0 0 32 32" version="1.1" xmlns="http://www.w3.org/2000/svg" xmlns:xlink="http://www.w3.org/1999/xlink" enable-background="new 0 0 32 32" xml:space="preserve" id="Layer_1">
  <g id="DefaultPrinter">
    <path d="M8,16H6V6h8v2H8V16z M26,18v8c0,1.1-0.9,2-2,2h-4v4H6v-4H2c-1.1,0-2-0.9-2-2V16c0-1.1,0.9-2,2-2h2v3   c0,0.6,0.4,1,1,1H26z M18,22H8v8h10V22z" fill="#727272" class="Black" />
    <path d="M31,0H17c-0.5,0-1,0.5-1,1v14c0,0.5,0.5,1,1,1h14c0.5,0,1-0.5,1-1V1C32,0.5,31.5,0,31,0z M30,5l-8,8l-4-4V6   l4,4l8-8V5z" fill="#039C23" class="Green" />
  </g>
</svg>