<?xml version='1.0' encoding='UTF-8'?>
<svg x="0px" y="0px" viewBox="0 0 32 32" version="1.1" xmlns="http://www.w3.org/2000/svg" xmlns:xlink="http://www.w3.org/1999/xlink" xml:space="preserve" id="Layer_1">
  <g id="Forward">
    <path d="M16,18h3.5l-0.6-0.6c-0.6-0.6-0.7-1.4-0.4-2.2c0.3-0.7,1-1.2,1.8-1.2H24V8L12,0L0,8v15c0,0.5,0.5,1,1,1h13   v-4C14,18.9,14.9,18,16,18z M12,15.8L2,9.1l10-6.7l10,6.7L12,15.8z" fill="#727272" class="Black" />
    <polygon points="26,16 20.3,16 24.3,20 16,20 16,24 24.3,24 20.3,28 26,28 32,22  " fill="#1177D7" class="Blue" />
  </g>
</svg>