<?xml version='1.0' encoding='UTF-8'?>
<svg x="0px" y="0px" viewBox="0 0 32 32" version="1.1" xmlns="http://www.w3.org/2000/svg" xmlns:xlink="http://www.w3.org/1999/xlink" enable-background="new 0 0 32 32" xml:space="preserve" id="Layer_1">
  <polygon points="12,18 12,32 30,32 32,22 30,22 30,16 22,16 20,18 " fill="#EEB764" />
  <polygon points="14,20 14,30 17,22 28,22 28,18 24,18 22,20 " fill="#FFFFFF" />
  <g opacity="0.6">
    <path d="M4,24h6v-6H4V24z M6,20h2v2H6V20z" opacity="0.6" />
    <path d="M4,16h6v-6H4V16z M6,12h2v2H6V12z" opacity="0.6" />
    <path d="M12,10v6h6v-6H12z M16,14h-2v-2h2V14z" opacity="0.6" />
  </g>
  <polygon points="20,18 20,8 2,8 2,26 12,26 12,28 0,28 0,6 22,6 22,16 " opacity="0.3" />
</svg>