<svg id="svg2" xmlns="http://www.w3.org/2000/svg" xmlns:xlink="http://www.w3.org/1999/xlink" viewBox="0 0 688.72 836.62"><defs><style>.cls-1{fill:#007fff;}.cls-2{fill:#393939;}.cls-10,.cls-12,.cls-14,.cls-15,.cls-16,.cls-17,.cls-18,.cls-19,.cls-2,.cls-20,.cls-21,.cls-22,.cls-23,.cls-24,.cls-3,.cls-4,.cls-5,.cls-6,.cls-8,.cls-9{stroke:#000;}.cls-10,.cls-13,.cls-2,.cls-24,.cls-3,.cls-4,.cls-5,.cls-6,.cls-8,.cls-9{stroke-width:1.5px;}.cls-3{fill:#d5b5af;}.cls-11,.cls-16,.cls-4{fill:#fff;}.cls-5{fill:none;}.cls-6{fill:#cf223f;}.cls-7{fill:#ecd718;}.cls-8{fill:#ecd618;}.cls-9{fill:url(#radial-gradient);}.cls-10{fill:url(#radial-gradient-2);}.cls-11{fill-opacity:0.78;}.cls-13{stroke:#777772;}.cls-14{fill:#270000;}.cls-15{fill:maroon;}.cls-15,.cls-23{stroke-width:0.44px;}.cls-16{stroke-width:0.8px;}.cls-17{stroke-width:0.65px;}.cls-18{stroke-width:0.49px;}.cls-19{stroke-width:0.69px;}.cls-20{stroke-width:0.56px;}.cls-21{stroke-width:0.46px;}.cls-22{stroke-width:0.63px;}.cls-23{fill:url(#radial-gradient-3);}</style><radialGradient id="radial-gradient" cx="-264.07" cy="994.82" r="124.12" gradientTransform="matrix(1, 0, 0, -1.04, 728.32, 1364.71)" gradientUnits="userSpaceOnUse"><stop offset="0" stop-color="#bfbfb5"/><stop offset="1" stop-color="#bfbfb5" stop-opacity="0"/></radialGradient><radialGradient id="radial-gradient-2" cx="-96.96" cy="1093.6" r="124.12" gradientTransform="matrix(1, 0, 0, -1.04, 346.36, 1470.22)" xlink:href="#radial-gradient"/><radialGradient id="radial-gradient-3" cx="126.86" cy="638.98" r="22.46" gradientTransform="matrix(1, 0, 0, -0.99, 231.73, 1122.76)" gradientUnits="userSpaceOnUse"><stop offset="0" stop-color="#fff"/><stop offset="1" stop-color="#fff" stop-opacity="0"/></radialGradient></defs><title>DRC_Coat_of_arms_Blue</title><path id="path3134" class="cls-1" d="M194.39,11.66S14.17,261.88,13,375.66s117.87,249.6,117.87,249.6V847.13L569.94,846V623S700.85,483.19,701.68,368.73,522.56,10.5,522.56,10.5,524.73,223,358.48,225.44,194.39,11.66,194.39,11.66Z" transform="translate(-12.96 -10.5)"/><g id="g42646"><path id="path23740" class="cls-2" d="M404,639.1,508.64,366.76c-49.45-75.77,41.7-132.67,68.65-160.93.9,65.74,28,136-51.77,168.81L427.61,644.73,404,639.1Z" transform="translate(-12.96 -10.5)"/><path id="path19856" class="cls-3" d="M165,703.87c35.21-3.52,68.78-2.1,103.05-2.79,28-1,56,4.09,83.95,6.37,25.47,1.77,50.93-1.3,76.4-2L495.25,709,541,711c7,.43,6.62,4,6.36,7.56-1.92,19-11.62,31.76-18.3,46.95a181,181,0,0,1-25.46,27.05c-5.55,5.61-13.82,6.86-24.67,4-5.06-3-48.54,0-72.81,0,0,0-9.16-2.09-15.52-2s-4.28,2.19-9.95,2.39-7.66-1.89-12.73-1.59c-3.48.5-3.08,2.68-7.56,2.78-12.91.22-41.37-4.21-44.56-2.38-22.9,12.44-55.14,5.47-84.35,4.77H200.82c-11-.07-15.41-8.16-19.1-17.11-3.24-9.36-8.15-13.75-12.33-20.29-10.83-19.21-7.78-33.8-8.16-49.54-2.73-8.71.79-8.35,3.78-9.74Z" transform="translate(-12.96 -10.5)"/><path id="path20827" class="cls-3" d="M161.46,705.5c10.55-15.17,44.92-27.9,67.1-42.63l260.11,11.82c19.22,10.06,36.8,22.18,54.58,34,5.66,5.13,2.91,4.9.56,4.93C416.36,715.5,288.91,718.08,161.46,705.5Z" transform="translate(-12.96 -10.5)"/><path id="path21798" class="cls-4" d="M335.9,640.23C122.61,416,214.88,289.7,250.37,226.09c-169.56,145.46-90,309.54-2.25,431Z" transform="translate(-12.96 -10.5)"/><path id="path22769" class="cls-5" d="M247.56,228.34C154.39,324.49,156.88,486.73,275.69,638" transform="translate(-12.96 -10.5)"/><g id="g25844"><path id="path18883" class="cls-6" d="M240.61,641c10.61-17.45,7.67-37.59-4-48.94-38.13-34.29-92.38-83.16-111.41-136.87-10.65-33.54-23-64.61-26.65-108.22-5-34.09-56.81-20.22-50.14,20.29l14.72,62.47C94.78,580.57,183.83,603.59,235.83,658.91Z" transform="translate(-12.96 -10.5)"/><g id="g24841"><path id="text24739" class="cls-7" d="M96,398.3l.88,13.57-1.72.05c-.51-1.51-1.33-1.78-3.48-1.72L78,411.07q-4,.26-5.87-.7A7.74,7.74,0,0,1,69,406.75a15.93,15.93,0,0,1-1.46-6.53,14.26,14.26,0,0,1,1.58-7.74c1.17-2,4-3.07,5.54-3.17a2.74,2.74,0,0,1,2.38,1,4.59,4.59,0,0,1,1,2.84,4.86,4.86,0,0,1-.71,2.87,2.42,2.42,0,0,1-1.93,1.27,2.37,2.37,0,0,1-1-.12,1.74,1.74,0,0,1-1.07-.81,1.9,1.9,0,0,0-2.75-.68c-1.37.89-1.41,2-1.39,3.54a3.79,3.79,0,0,0,.53,1.93,2.34,2.34,0,0,0,1.45,1,25,25,0,0,0,5.33,0l14.92-.95c2.52,0,2.79-.82,3-2.83l1.59-.1Z" transform="translate(-12.96 -10.5)"/><path id="text24743" class="cls-7" d="M101.32,421.73l3.3,11.8-.74.32A4.05,4.05,0,0,0,103,432a2,2,0,0,0-1.17-.6,9.93,9.93,0,0,0-3,.62l-13.44,4c-2.45.74-2.33.82-3,1.44a5,5,0,0,0-1.46,2.48,6.72,6.72,0,0,0,.14,3.56,7.44,7.44,0,0,0,2.1,3.62,6.5,6.5,0,0,0,1.7,1.12c1.44,1.16,13.41-3,20.12-4.46a2.55,2.55,0,0,0,.81-1.33,6.3,6.3,0,0,0-.27-2.8l.75-.22,2.46,8.8-.83.09c-.85-1.86-2.67-2.08-5-1.61l-10.42,3.11a27.3,27.3,0,0,1-7.17,1.43,7.94,7.94,0,0,1-4.84-2,12.15,12.15,0,0,1-3.75-6.43,14.13,14.13,0,0,1-.64-6,8.82,8.82,0,0,1,2.24-4.86,11.91,11.91,0,0,1,5.13-2.75l13.44-4c2.56-.62,3.54-1.46,3.41-3.41l1,0Z" transform="translate(-12.96 -10.5)"/><path id="text24757" class="cls-7" d="M121.79,476l-8.15,4.73-.46-.94a9.76,9.76,0,0,0,3.41-6,10.7,10.7,0,0,0-.86-6.64,6.53,6.53,0,0,0-2.81-3.15,3.1,3.1,0,0,0-3-.11,2.8,2.8,0,0,0-1.23,1.27,8.38,8.38,0,0,0-.66,3,59.35,59.35,0,0,0,.29,6.12q.52,6.6-.45,9.52A7,7,0,0,1,97.64,488a13.32,13.32,0,0,1-6-6.47,17,17,0,0,1-1.12-2.89,29,29,0,0,1-.7-3.75,7,7,0,0,0-.52-2,2.85,2.85,0,0,0-1-1.05,2.91,2.91,0,0,0-1.65-.47l-.41-.85,9.37-5.07.41.84a12.39,12.39,0,0,0-4.13,7.14,11.75,11.75,0,0,0,1,7.3A7.13,7.13,0,0,0,96,484.18a3.51,3.51,0,0,0,3.35.11,3.56,3.56,0,0,0,1.42-1.5,7.3,7.3,0,0,0,.69-2.62,33.29,33.29,0,0,0-.13-5.25,44.93,44.93,0,0,1-.14-7.61,11.28,11.28,0,0,1,1.22-4.26,6.59,6.59,0,0,1,2.69-2.72,6.81,6.81,0,0,1,6.39,0A11.61,11.61,0,0,1,116.9,466a16.12,16.12,0,0,1,1.14,3.08,18.94,18.94,0,0,1,.47,3.06,8.39,8.39,0,0,0,.46,2.48,1.5,1.5,0,0,0,.76.77,3.15,3.15,0,0,0,1.72-.12Z" transform="translate(-12.96 -10.5)"/><path id="text24761" class="cls-7" d="M140,508l-6.07,4.43-.42-.62a12.44,12.44,0,0,0,2.2-3.44,6,6,0,0,0,.22-2.91,7.23,7.23,0,0,0-1.24-2.52l-1.17-1.75L116.2,513.79a8.85,8.85,0,0,0-2,1.77,2.26,2.26,0,0,0-.23,1.33,3.92,3.92,0,0,0,.73,1.81l.53.78-.62.45-8.21-12.28.61-.44.52.77a3.85,3.85,0,0,0,1.45,1.39,1.84,1.84,0,0,0,1.27.13,8.12,8.12,0,0,0,2.21-1.33l17.29-12.63-1.13-1.69a5.81,5.81,0,0,0-3.26-2.74,7.45,7.45,0,0,0-5.09.88l-.44-.65,6.07-4.43L140,508Z" transform="translate(-12.96 -10.5)"/><path id="text24765" class="cls-7" d="M138.12,547.61l-.57.48L124,533.56l.58-.49.85.93a7.3,7.3,0,0,0,2.15,1.67,2.36,2.36,0,0,0,1.51.19,6.51,6.51,0,0,0,2.17-1.43l13.87-11.69a6.39,6.39,0,0,0,1.81-1.92,2.31,2.31,0,0,0-.14-1.51,6.48,6.48,0,0,0-1.42-2.11l-.86-.93.57-.48,13.54,14.53-.57.49-.86-.92a7.17,7.17,0,0,0-2.14-1.68,2.51,2.51,0,0,0-1.53-.21,6.42,6.42,0,0,0-2.17,1.43l-13.88,11.69a6.17,6.17,0,0,0-1.8,1.94,2.46,2.46,0,0,0,.15,1.51,6.51,6.51,0,0,0,1.42,2.12l.86.92Z" transform="translate(-12.96 -10.5)"/><path id="text24769" class="cls-7" d="M183.27,550.78l-5.68,8.51-.7-.47a11,11,0,0,0,.45-7.1,9.14,9.14,0,0,0-3.72-5.07,8.81,8.81,0,0,0-5.09-1.5,9.28,9.28,0,0,0-5.11,1.58,19,19,0,0,0-5.2,5.32,24.65,24.65,0,0,0-3.17,6.56,9.57,9.57,0,0,0-.14,5.83,8.69,8.69,0,0,0,3.66,4.47,10.84,10.84,0,0,0,4.91,1.83,17.67,17.67,0,0,0,6.38-.78l-1.41,2.12a14.4,14.4,0,0,1-12.23-2.28,18.12,18.12,0,0,1-5.9-6.25,13.5,13.5,0,0,1-1.67-7.68,15.27,15.27,0,0,1,2.55-7.39,16.08,16.08,0,0,1,14.49-7,16.12,16.12,0,0,1,7.77,2.71,18,18,0,0,1,4.7,4.78,9.84,9.84,0,0,0,1.67,2.07,1.67,1.67,0,0,0,1.29.25,2.79,2.79,0,0,0,1.45-1l.7.47Z" transform="translate(-12.96 -10.5)"/><path id="text24773" class="cls-7" d="M198.74,571l-7.6,8.78.5.44q2.43,2.1,4.64,1.76a9.42,9.42,0,0,0,4.69-2.59l.71.62-9.78,11.29-.71-.62a9.82,9.82,0,0,0,1.66-3.84,5,5,0,0,0-.31-3,10.06,10.06,0,0,0-2.44-2.82L184.84,587a10.07,10.07,0,0,0-1.71,2.33,1.88,1.88,0,0,0,.11,1.24,4.79,4.79,0,0,0,1.36,1.62l1.53,1.32a13.7,13.7,0,0,0,6.94,3.57,10.29,10.29,0,0,0,6.79-1.58l.7.6L193.47,602,171.4,582.86l.51-.59.85.73a5.28,5.28,0,0,0,2.08,1.22,2,2,0,0,0,1.41-.11,7.45,7.45,0,0,0,1.94-1.83l12.29-14.19a13.17,13.17,0,0,0,1.46-1.87,2.07,2.07,0,0,0,.05-1.47,4.91,4.91,0,0,0-1.58-2.14l-.84-.73.5-.59,21.38,18.51-5.52,6.38-.72-.62a9.34,9.34,0,0,0,1.37-4.69,7.76,7.76,0,0,0-1.5-3.91,23.64,23.64,0,0,0-3.71-3.72L198.74,571Z" transform="translate(-12.96 -10.5)"/></g></g><g id="g25833"><path id="path19854" class="cls-6" d="M475.18,642.75c-10.61-17.45-7.67-37.59,4-48.94,38.13-34.29,92.37-83.17,111.4-136.87,10.66-33.54,23.05-64.62,26.66-108.22,5-34.09,56.81-20.23,50.14,20.29l-14.73,62.47C621,582.32,532,605.34,480,660.65Z" transform="translate(-12.96 -10.5)"/><g id="g24832"><path id="path24785" class="cls-7" d="M519.39,575.4l4.91,5.68-.59.47a12.23,12.23,0,0,0-3.6-1.91,6,6,0,0,0-2.92,0,7.23,7.23,0,0,0-2.41,1.44l-1.65,1.31,14,16.21a8.67,8.67,0,0,0,1.92,1.87,2.24,2.24,0,0,0,1.34.12,4,4,0,0,0,1.76-.88l.73-.58.49.57-11.56,9.19-.5-.58.73-.58a3.89,3.89,0,0,0,1.27-1.55,1.86,1.86,0,0,0,0-1.28,8.4,8.4,0,0,0-1.51-2.09l-14-16.22-1.6,1.27a5.81,5.81,0,0,0-2.47,3.48,7.46,7.46,0,0,0,1.3,5l-.62.49-4.91-5.69,19.85-15.75Z" transform="translate(-12.96 -10.5)"/><path id="path24787" class="cls-7" d="M622,466.24l-4.08,9.82,2.22,2.29a6.69,6.69,0,0,0,2,1.51,2,2,0,0,0,2.11-.23,8.64,8.64,0,0,0,1.63-2.52l.76.31L622,488.51l-.75-.31c0-1.16.41-1.63-.22-3a15.76,15.76,0,0,0-3.2-4.12l-15.77-17.2,1.86-4.49,23.75-.25a15.14,15.14,0,0,0,5.06-.66,3.52,3.52,0,0,0,1.56-1.66l.75.31-5.59,13.45-.76-.32.23-.55a4.55,4.55,0,0,0,.5-2.46,1.2,1.2,0,0,0-.76-.85,2.84,2.84,0,0,0-.8-.19c-.14,0-.74,0-1.8,0l-4.08,0Zm-1.8.07-11.29.16,7.79,8.24,3.5-8.4Z" transform="translate(-12.96 -10.5)"/><path id="path24789" class="cls-7" d="M583.75,537.38l-6.84,8.14,1.43,2.86a6.68,6.68,0,0,0,1.45,2,2,2,0,0,0,2.09.42,8.83,8.83,0,0,0,2.31-1.92l.62.53-7.72,9.19-.63-.53c.3-1.12.88-1.42.68-2.9a15.72,15.72,0,0,0-1.82-4.89l-9.87-21.14,3.12-3.72,22.73,6.88a14.82,14.82,0,0,0,5,.89,3.52,3.52,0,0,0,2-1.11l.63.52-9.37,11.15-.63-.53.39-.46a4.6,4.6,0,0,0,1.21-2.2,1.19,1.19,0,0,0-.47-1,2.61,2.61,0,0,0-.71-.42c-.12-.07-.69-.25-1.71-.57l-3.9-1.19ZM582,536.9l-10.82-3.23,5,10.2,5.85-7Z" transform="translate(-12.96 -10.5)"/><path id="path24791" class="cls-7" d="M612.25,441.49l-.71-.25,5.83-19,.7.26-.37,1.21a7.14,7.14,0,0,0-.37,2.69,2.26,2.26,0,0,0,.59,1.4,6.14,6.14,0,0,0,2.31,1.17l17.06,6.18a6.49,6.49,0,0,0,2.58.6,2.38,2.38,0,0,0,1.24-.87,6.59,6.59,0,0,0,1.11-2.29l.37-1.21.71.26-5.82,19-.71-.26.37-1.2a7.2,7.2,0,0,0,.38-2.69,2.48,2.48,0,0,0-.58-1.43,6.31,6.31,0,0,0-2.32-1.17l-17.06-6.18a6.23,6.23,0,0,0-2.58-.59,2.36,2.36,0,0,0-1.24.89,6.33,6.33,0,0,0-1.12,2.29l-.37,1.2Z" transform="translate(-12.96 -10.5)"/><path id="text24795" class="cls-7" d="M547.69,569.73l5.33,6.08a8.78,8.78,0,0,0,2.16,2,2.13,2.13,0,0,0,1.4.07,7,7,0,0,0,2.27-1.51l.51.59-11.09,9.73-.52-.59a6.59,6.59,0,0,0,1.79-2.07,2.17,2.17,0,0,0,.12-1.38,8.71,8.71,0,0,0-1.72-2.4L535.59,566.2a8.62,8.62,0,0,0-2.15-2,2.07,2.07,0,0,0-1.4-.06,6.79,6.79,0,0,0-2.27,1.5l-.52-.59,10.07-8.83a29.2,29.2,0,0,1,6.23-4.51,7.77,7.77,0,0,1,4.74-.6,7.17,7.17,0,0,1,4.16,2.42A6.83,6.83,0,0,1,556.2,559a9.58,9.58,0,0,1-1.78,4.19L566.07,566a14.38,14.38,0,0,0,3,.49,3.61,3.61,0,0,0,2-.78l.51.59-6.82,6-15.66-3.75-1.42,1.24Zm-9.33-10.63,8.33,9.5.92-.8a13.33,13.33,0,0,0,3-3.33,4.38,4.38,0,0,0,.45-3,7.15,7.15,0,0,0-1.8-3.33,6.73,6.73,0,0,0-4.38-2.64q-2.19-.16-4.77,2.09l-1.71,1.5Z" transform="translate(-12.96 -10.5)"/><path id="text24799" class="cls-7" d="M596.07,483l.73.42a5,5,0,0,0,0,3.51,28.6,28.6,0,0,0,3.16,5.18l13.35,18.57-1.46,2.91L588,510.55a31.13,31.13,0,0,0-5.79-.45,3.67,3.67,0,0,0-2.09,1.61l-.73-.43,7.54-12.75.73.43-.26.44a5.18,5.18,0,0,0-1,2.6,1.12,1.12,0,0,0,.6,1,2.93,2.93,0,0,0,.93.34c.38.09,1.45.24,3.2.47l16.59,2.16L599,493.7a34.74,34.74,0,0,0-2.18-2.85,4.88,4.88,0,0,0-1.1-.94,2.11,2.11,0,0,0-1.23-.3,2.26,2.26,0,0,0-1.23.51,7.28,7.28,0,0,0-1.66,2l-.72-.43Z" transform="translate(-12.96 -10.5)"/><path id="text24803" class="cls-7" d="M643.64,393.9l9.06,3.45-5.86,24.53-.73-.19.22-.91a4.11,4.11,0,0,0,0-2,1.82,1.82,0,0,0-.74-1.05,8.22,8.22,0,0,0-2.41-.87l-17.44-4.52a8.89,8.89,0,0,0-2.6-.44,2,2,0,0,0-1.11.68,3.92,3.92,0,0,0-.82,1.74l-.22.92-.72-.19,3.52-14.73.72.19-.28,1.2a4.08,4.08,0,0,0-.06,2,2.06,2.06,0,0,0,.74,1.08,8.22,8.22,0,0,0,2.41.87l16.9,4.38a8.82,8.82,0,0,0,2.65.43,1.63,1.63,0,0,0,1.06-.75,10,10,0,0,0,.76-2.42l.56-2.3a8.39,8.39,0,0,0,.13-3.86,7.11,7.11,0,0,0-1.74-3.14,19.84,19.84,0,0,0-4.25-3.26l.2-.83Z" transform="translate(-12.96 -10.5)"/></g></g><g id="g25825"><path id="path17912" class="cls-6" d="M229.07,657.71c-10.88-31,24.38-31.75,32.23-25.46L426,633c9.52,2.15,15.2,2.08,22.28,0,13.35-2.06,32.94-13,38.2,2.39-.38,14.84,1.41,27.5,2.38,41,.29,6.48-1.58,14.85-6,15.52l-215.65,1.59c-27.67,4.27-41.57-9.23-38.2-35.81Z" transform="translate(-12.96 -10.5)"/><g id="g24850"><path id="text24711" class="cls-7" d="M282.22,669.36c.37,3,.28,3.11,3.41,3.36v1.66H271.19v-1.87c3.39.11,3.36-.19,3.61-3.15V651.54a7.37,7.37,0,0,0-.32-2.8c-.73-.66-1.7-.49-2.7-.49l0-1.53h12.61c4.61,0,7.93.71,9.93,2.11a6.24,6.24,0,0,1,3,5.26,6.18,6.18,0,0,1-1.95,4.58,10.39,10.39,0,0,1-5.36,2.59,43.27,43.27,0,0,1-7.78.48v7.62Zm0-21.06V660a11.66,11.66,0,0,0,3.54-.12,5.1,5.1,0,0,0,2.11-1.16,6,6,0,0,0,1.56-4.55,5.76,5.76,0,0,0-1.56-4.47,6.75,6.75,0,0,0-4.68-1.42Z" transform="translate(-12.96 -10.5)"/><path id="text24723" class="cls-7" d="M333.28,665.46H322.65l-1.27,2.93a6.55,6.55,0,0,0-.62,2.42,2,2,0,0,0,1,1.86,8.36,8.36,0,0,0,3,.53V674h-12v-.83c1.06-.49,1.66-.24,2.67-1.34a15.56,15.56,0,0,0,2.57-4.54l9.83-21.16h4.86L342,668a15,15,0,0,0,2.56,4.42,3.49,3.49,0,0,0,2.13.79V674H332.13v-.83h.6a4.62,4.62,0,0,0,2.46-.48,1.21,1.21,0,0,0,.49-1,2.78,2.78,0,0,0-.14-.83c0-.13-.25-.68-.66-1.66l-1.6-3.75Zm-.75-1.64L328,653.45l-4.62,10.37Z" transform="translate(-12.96 -10.5)"/><path id="text24731" class="cls-7" d="M415.16,658.05,422.51,669a17.77,17.77,0,0,0,2.8,3.54,4,4,0,0,0,2,.75V674H413.34v-.78a4.59,4.59,0,0,0,2.15-.51,1.14,1.14,0,0,0,.48-.93,1.57,1.57,0,0,0-.14-.67,21.47,21.47,0,0,0-1.48-2.37l-3.69-5.46-6.82,7.91c-.32.52-.12,1,.51,1.34a4.62,4.62,0,0,0,1.5.56,8.3,8.3,0,0,0,1.81.13V674h-11v-.78a7,7,0,0,0,3-1,22.62,22.62,0,0,0,3.94-4.05l5.67-6.92L402,650.57c-1.2-1.76-1.88-2.74-2.05-2.93a3.86,3.86,0,0,0-1.12-1,5,5,0,0,0-1.52-.44v-.78h14.2v.78h-.72a2.78,2.78,0,0,0-1.7.39,1.2,1.2,0,0,0-.49,1,1.94,1.94,0,0,0,.15.8l1.45,2.2,3.55,5.4,3-3.69q2.32-2.85,2.32-4a1.8,1.8,0,0,0-.32-1,2.11,2.11,0,0,0-.94-.76,4.77,4.77,0,0,0-1.9-.28v-.78h10.53v.78a3.74,3.74,0,0,0-2.51.71l-8.75,11.14Z" transform="translate(-12.96 -10.5)"/><path id="path24793" class="cls-7" d="M379.58,673.45l0,.75-19.87.12,0-.75H361a7.17,7.17,0,0,0,2.68-.44,2.36,2.36,0,0,0,1.16-1,6.39,6.39,0,0,0,.42-2.57l.8-18.12a6.63,6.63,0,0,0-.19-2.64,2.38,2.38,0,0,0-1.21-.92,6.42,6.42,0,0,0-2.52-.38h-1.26l0-.75,19.87-.12,0,.75h-1.26a7,7,0,0,0-2.68.44,2.47,2.47,0,0,0-1.19,1,6.33,6.33,0,0,0-.42,2.56l-.79,18.13a6.19,6.19,0,0,0,.2,2.64,2.52,2.52,0,0,0,1.22.92,6.68,6.68,0,0,0,2.52.38Z" transform="translate(-12.96 -10.5)"/></g></g><g id="g40608"><path id="path2161" class="cls-8" d="M426.89,343.65c7-8.7,15.84-15.92,26.26-22.68,17.88-10.24,30.92-4.73,24.67,33a57.92,57.92,0,0,1-17.11,24.67l.79,2.39-6.36,6c-6,6.7-1.54,11.71,1.19,16.71,10.85,22.57-.09,36.9-10.35,47.34l-19.49,15.52c-3.47,5-4.72,10.41-5.57,15.92-1.29,6.4-9.17,14.28-14.33,23.87-3.23,7.55-2.16,14.45-3.58,23.87-8.37,27.23-34.35,23.61-47,24.14-12.64-.39-38.61,3.23-47-24-1.41-9.42-.35-16.32-3.58-23.87-5.15-9.59-13-17.47-14.32-23.87-.85-5.51-2.1-10.94-5.57-15.92l-19.5-15.52c-10.25-10.44-21.2-24.77-10.34-47.34,2.73-5,7.21-10,1.19-16.71l-6.36-6,.79-2.39a57.74,57.74,0,0,1-17.11-24.67c-6.25-37.75,6.79-43.26,24.67-33,10.42,6.76,19.25,14,26.26,22.68L276,333.56c12.35-9.55,32.68-13.64,47.83-18.28,25.38-22.37,40.81-21.88,65.83.56,15.94,4.5,34.37,9.59,46.14,18l-8.88,9.81Z" transform="translate(-12.96 -10.5)"/><path id="path35723" class="cls-9" d="M426.89,343.65c7-8.7,15.84-15.92,26.26-22.68,17.88-10.24,30.92-4.73,24.67,33a57.92,57.92,0,0,1-17.11,24.67l.79,2.39-6.36,6c-6,6.7-1.54,11.71,1.19,16.71,10.85,22.57-.09,36.9-10.34,47.34l-19.5,15.52c-3.47,5-4.72,10.41-5.57,15.92-1.29,6.4-9.17,14.28-14.32,23.87-3.24,7.55-2.17,14.45-3.59,23.87-8.37,27.23-34.35,23.61-47,24.14-12.64-.39-38.61,3.23-47-24-1.41-9.42-.35-16.32-3.58-23.87-5.15-9.59-13-17.47-14.32-23.87-.85-5.51-2.1-10.94-5.57-15.92l-19.5-15.52c-10.25-10.44-21.2-24.77-10.34-47.34,2.73-5,7.21-10,1.19-16.71l-6.36-6,.79-2.39a57.74,57.74,0,0,1-17.11-24.67c-6.25-37.75,6.79-43.26,24.67-33,10.42,6.76,19.25,14,26.26,22.68L276,333.56c12.35-9.55,32.68-13.64,47.83-18.28,25.39-22.37,40.81-21.88,65.83.56,15.94,4.51,34.37,9.59,46.14,18Z" transform="translate(-12.96 -10.5)"/><path id="path35725" class="cls-10" d="M426.89,343.65c7-8.7,15.84-15.92,26.26-22.68,17.88-10.24,30.92-4.73,24.67,33a57.92,57.92,0,0,1-17.11,24.67l.79,2.39-6.36,6c-6,6.7-1.54,11.71,1.19,16.71,10.85,22.57-.09,36.9-10.34,47.34l-19.5,15.52c-3.47,5-4.72,10.41-5.57,15.92-1.29,6.4-9.17,14.28-14.32,23.87-3.24,7.55-2.17,14.45-3.59,23.87-8.37,27.23-34.35,23.61-47,24.14-12.64-.39-38.61,3.23-47-24-1.41-9.42-.35-16.32-3.58-23.87-5.15-9.59-13-17.47-14.32-23.87-.85-5.51-2.1-10.94-5.57-15.92l-19.5-15.52c-10.25-10.44-21.2-24.77-10.34-47.34,2.73-5,7.21-10,1.19-16.71l-6.36-6,.79-2.39a57.74,57.74,0,0,1-17.11-24.67c-6.25-37.75,6.79-43.26,24.67-33,10.42,6.76,19.25,14,26.26,22.68L276,333.56c12.35-9.55,32.68-13.64,47.83-18.28,25.39-22.37,40.81-21.88,65.83.56,15.94,4.51,34.37,9.59,46.14,18l-8.88,9.81Z" transform="translate(-12.96 -10.5)"/><path id="path40702" class="cls-11" d="M292.51,380.24c-.05-2.14,25.65-5.05,35.81,2.38,11.07,10.95-4.65,17.74-11.74,14.73-2.33-1.17-5.48-3.74-9.87-7.36-6.58-5.45-15.95-8.32-14.2-9.75Z" transform="translate(-12.96 -10.5)"/><path id="path11993" class="cls-12" d="M294.12,377c-.05-2.13,25.65-5.05,35.81,2.39,11.08,11-4.65,17.73-11.74,14.72-2.33-1.17-5.48-3.73-9.86-7.36C301.74,381.32,292.37,378.44,294.12,377Z" transform="translate(-12.96 -10.5)"/><path id="path12964" class="cls-13" d="M328.94,385.76a7.67,7.67,0,1,1-7.66-7.36A7.51,7.51,0,0,1,328.94,385.76Z" transform="translate(-12.96 -10.5)"/><path id="path13937" class="cls-14" d="M359.76,519.08c3.23.42,5.59,1.66,8.63,3.67,18.33,8.81,22.31-10.62,23.87-34.82,3.05-22.41,17.38-24.94,16.31-29-.84-1.31-11.33.87-16.51,1.79C372.69,464,366,459.14,359,454.75c-7,4.48-13.69,9.37-33.06,6-5.18-.92-15.67-3.09-16.51-1.79-1.07,4.11,13.26,6.63,16.31,29,1.56,24.2,5.55,43.63,23.88,34.81,3.5-2.31,6.36-3.54,10.13-3.75Z" transform="translate(-12.96 -10.5)"/><path id="path14913" class="cls-15" d="M359.7,506.72a8.44,8.44,0,0,1,3.77,1.59c8,3.85,11.13-4.63,11.81-15.19-.26-13.36,6-24.41,5.53-26.2-.37-.57-5.15.38-7.41.78-8.45,1.47-11.17-.67-14.22-2.58-3.06,1.95-6,4.08-14.43,2.62-2.26-.4-8-1.15-8.4-.58-.34,1,7.28,9.29,7.32,26.8.68,10.56,3.61,18.24,11.61,14.39a8.45,8.45,0,0,1,4.42-1.63Z" transform="translate(-12.96 -10.5)"/><path id="path15888" class="cls-16" d="M382.88,466.64c1.14-5.39,4.89-4,7.74-4.93,3.26,3.68-3.52,18.55-7.18,18.29Z" transform="translate(-12.96 -10.5)"/><path id="path16859" class="cls-16" d="M330.49,465.79c-1.14-5.38-4.89-4-7.74-4.92-3.26,3.67,3.53,18.54,7.18,18.29Z" transform="translate(-12.96 -10.5)"/><g id="g33721"><path id="path11931" class="cls-12" d="M346.48,379.5c3.72-.08,7.29,11,.56,12.33C346.22,391.53,346.05,380.6,346.48,379.5Z" transform="translate(-12.96 -10.5)"/><g id="g29785"><path id="path11907" class="cls-17" d="M329.77,445.31c-1,1-.92,2,0,3.12a2.38,2.38,0,0,0,3.49.37,1.83,1.83,0,0,0,.18-2.94A2.6,2.6,0,0,0,329.77,445.31Z" transform="translate(-12.96 -10.5)"/><path id="path11909" class="cls-17" d="M325.38,426.32c-1.05,1-.91,2,0,3.12a2.38,2.38,0,0,0,3.49.37,1.83,1.83,0,0,0,.19-2.94A2.61,2.61,0,0,0,325.38,426.32Z" transform="translate(-12.96 -10.5)"/><path id="path11911" class="cls-18" d="M335.46,433.25c1.41-1.51,5.66,4.39,4.28,5.23C338.29,438.26,336.57,437.16,335.46,433.25Z" transform="translate(-12.96 -10.5)"/><path id="path11913" class="cls-18" d="M324.34,417.86c1.41-1.5,6.08,2.43,4.7,3.27C327.59,420.91,325.44,421.78,324.34,417.86Z" transform="translate(-12.96 -10.5)"/><path id="path11915" class="cls-19" d="M334.92,438.23c-.6-1.68-3.46-3-4.5-1.46s.35,5.36,2,5.52,3.1-2.39,2.51-4.06Z" transform="translate(-12.96 -10.5)"/><path id="path11917" class="cls-20" d="M341.1,444.39c-.49-1.36-2.82-2.43-3.67-1.19s.29,4.38,1.62,4.51S341.58,445.76,341.1,444.39Z" transform="translate(-12.96 -10.5)"/><path id="path11919" class="cls-21" d="M320.76,421.46c-.4-1.13-2.32-2-3-1s.23,3.61,1.33,3.72,2.09-1.61,1.69-2.74Z" transform="translate(-12.96 -10.5)"/><path id="path11921" class="cls-22" d="M319.39,428.18c-1,1.27-.63,4.1,1,4.17s4-2.86,3.3-4.2-3.34-1.23-4.34,0Z" transform="translate(-12.96 -10.5)"/><path id="path11923" class="cls-18" d="M324.51,435c1.79-1,5.14,4.06,3.58,4.47C326.77,438.84,324.46,439.05,324.51,435Z" transform="translate(-12.96 -10.5)"/><path id="path11925" class="cls-12" d="M331.3,409c2.7-3.08,13.94,5.25,13,8.2C342.58,418.92,330.33,412,331.3,409Z" transform="translate(-12.96 -10.5)"/><path id="path11927" class="cls-12" d="M338.38,400.59c3.41-2.27,10.12,8.1,10.46,11.3C345.1,410.55,336.66,403.27,338.38,400.59Z" transform="translate(-12.96 -10.5)"/><path id="path11929" class="cls-12" d="M349.3,396.73c2.68.23,2.78,8.25.55,9.34C347.39,405.78,346.31,397.83,349.3,396.73Z" transform="translate(-12.96 -10.5)"/><g id="g29750"><path id="path3154" class="cls-12" d="M304.67,343.13c-2.46-.78-7.32,4.5-6.47,7s8.23,4.86,9.84,3.1-.91-9.36-3.37-10.13Z" transform="translate(-12.96 -10.5)"/><path id="path4125" class="cls-12" d="M290.54,359.46c-2.47-.77-7.32,2.81-6.48,5.34s8.23,4.86,9.85,3.1-.91-7.67-3.37-8.44Z" transform="translate(-12.96 -10.5)"/><path id="path4127" class="cls-12" d="M339.21,327.68c-2.46-.77-9.85,3.38-9,5.91s9.08,3.73,10.7,2S341.67,328.46,339.21,327.68Z" transform="translate(-12.96 -10.5)"/><path id="path4129" class="cls-12" d="M306.07,327.65c-1.61,1.48-2.25,5.07-.84,6.76s4.85,1.47,6.47,0,1.41-4.22,0-5.91-4-2.32-5.63-.85Z" transform="translate(-12.96 -10.5)"/><path id="path5100" class="cls-12" d="M291.13,331.69c-1.62,1.48-1.41,3.1,0,4.79a3.62,3.62,0,0,0,5.34.56c1.62-1.48,1.69-2.81.28-4.5s-4-2.32-5.62-.85Z" transform="translate(-12.96 -10.5)"/><path id="path5102" class="cls-12" d="M333.36,366.48c-2.43,2.22-16.85-14.57-13.5-15.47C321,350.7,335.15,364.85,333.36,366.48Z" transform="translate(-12.96 -10.5)"/><path id="path5104" class="cls-12" d="M344.79,362.86c-2.06,2.58-16.76-14.27-13.5-15.47C334.38,346.25,346.52,360.7,344.79,362.86Z" transform="translate(-12.96 -10.5)"/><path id="path6075" class="cls-12" d="M332.46,313.05c-2.47-.77-6.48,1.41-5.63,3.94s6.54,4.29,8.16,2.53-.07-5.69-2.53-6.47Z" transform="translate(-12.96 -10.5)"/><path id="path6077" class="cls-12" d="M286.1,384.2c1.31-.75,13.51,12.84,10.69,13.79C292.08,398,285.83,393,286.1,384.2Z" transform="translate(-12.96 -10.5)"/><path id="path6079" class="cls-12" d="M276.33,399.27c3.39-2.53,9.84,10.92,6.75,12.1C280.24,410.42,277.15,407.56,276.33,399.27Z" transform="translate(-12.96 -10.5)"/><path id="path6081" class="cls-12" d="M305.23,395.74c4.86,3.26,13.06,11.71,10.69,15.47C312.86,412.18,306.39,401.37,305.23,395.74Z" transform="translate(-12.96 -10.5)"/><path id="path8021" class="cls-12" d="M301.68,426.94c-3.64,5,11.13,16.47,15.72,11.54C310.75,436.75,306.27,431.76,301.68,426.94Z" transform="translate(-12.96 -10.5)"/><path id="path8992" class="cls-12" d="M291.34,434.5c.28-.28,15.28,9.19,13.72,10.75-2,2-14.2-10.27-13.72-10.75Z" transform="translate(-12.96 -10.5)"/><path id="path8994" class="cls-12" d="M296.48,473.66c1.1-3.14,8.15,14.07,7.45,15.76-1.08,2.58-7.67-15.12-7.45-15.76Z" transform="translate(-12.96 -10.5)"/><path id="path9965" class="cls-12" d="M266.87,415c-5,13.58,1.88,29.63,10.94,31.63,1.33-2-6.27-4.85-8.45-14.8C267.61,423.84,268.11,414.52,266.87,415Z" transform="translate(-12.96 -10.5)"/><path id="path10936" class="cls-12" d="M310.44,494.19c.85-1.27,5.87,9.35,7,14.32.91,4.19-4.57,5.35-4.78,3.78C312,507.69,309.79,495.14,310.44,494.19Z" transform="translate(-12.96 -10.5)"/><path id="path12966" class="cls-12" d="M348.28,424.58c5.81,6.67,10.81,3.42,13.5-.14,8.24-8.57,16.07.3,10.41,6.19l-8.58,8.58c-3.15,3.31-12.62,3.69-15.33.42l-9.71-9.85c-4.77-6.34,2.17-12.47,9.71-5.2Z" transform="translate(-12.96 -10.5)"/><path id="path17836" class="cls-12" d="M407.39,343c2.46-.78,7.31,4.5,6.47,7s-8.23,4.86-9.85,3.1.92-9.36,3.38-10.13Z" transform="translate(-12.96 -10.5)"/><path id="path17838" class="cls-12" d="M421.52,359.32c2.46-.78,7.32,2.81,6.47,5.34s-8.23,4.86-9.84,3.1.91-7.67,3.37-8.44Z" transform="translate(-12.96 -10.5)"/><path id="path17840" class="cls-12" d="M372.85,327.54c2.46-.77,9.85,3.38,9,5.91s-9.07,3.73-10.69,2S370.39,328.32,372.85,327.54Z" transform="translate(-12.96 -10.5)"/><path id="path17842" class="cls-12" d="M406,327.51c1.62,1.48,2.25,5.07.85,6.76s-4.86,1.47-6.47,0-1.41-4.22,0-5.91,4-2.32,5.62-.85Z" transform="translate(-12.96 -10.5)"/><path id="path17844" class="cls-12" d="M420.93,331.55c1.62,1.48,1.41,3.1,0,4.79a3.62,3.62,0,0,1-5.34.56c-1.62-1.48-1.69-2.81-.28-4.5s4-2.32,5.62-.85Z" transform="translate(-12.96 -10.5)"/><path id="path17846" class="cls-12" d="M378.69,366.34c2.44,2.22,16.86-14.57,13.51-15.47C391.06,350.56,376.91,364.71,378.69,366.34Z" transform="translate(-12.96 -10.5)"/><path id="path17848" class="cls-12" d="M367.27,362.72c2.05,2.58,16.76-14.27,13.5-15.47C377.68,346.11,365.54,360.56,367.27,362.72Z" transform="translate(-12.96 -10.5)"/><path id="path17850" class="cls-12" d="M379.6,312.91c2.46-.77,6.47,1.41,5.63,3.94s-6.54,4.29-8.16,2.53.07-5.69,2.53-6.47Z" transform="translate(-12.96 -10.5)"/><path id="path17852" class="cls-12" d="M426,384.06c-1.31-.75-13.51,12.84-10.69,13.79C420,397.83,426.22,392.9,426,384.06Z" transform="translate(-12.96 -10.5)"/><path id="path17854" class="cls-12" d="M435.73,399.13c-3.39-2.53-9.84,10.92-6.75,12.1C431.82,410.28,434.91,407.42,435.73,399.13Z" transform="translate(-12.96 -10.5)"/><path id="path17856" class="cls-12" d="M406.83,395.6c-4.86,3.26-13.06,11.7-10.69,15.47C399.2,412,405.67,401.23,406.83,395.6Z" transform="translate(-12.96 -10.5)"/><path id="path17858" class="cls-12" d="M410.37,426.8c3.64,5-11.12,16.47-15.71,11.54,6.65-1.73,11.12-6.72,15.71-11.54Z" transform="translate(-12.96 -10.5)"/><path id="path17860" class="cls-12" d="M420.72,434.36c-.29-.28-15.28,9.19-13.73,10.75C409,447.08,421.2,434.84,420.72,434.36Z" transform="translate(-12.96 -10.5)"/><path id="path17862" class="cls-12" d="M415.58,473.52c-1.1-3.14-8.16,14.07-7.45,15.76C409.2,491.86,415.8,474.16,415.58,473.52Z" transform="translate(-12.96 -10.5)"/><path id="path17864" class="cls-12" d="M445.19,414.87c5,13.58-1.88,29.63-10.94,31.63-1.34-2,6.27-4.85,8.45-14.8,1.75-8,1.25-17.32,2.49-16.83Z" transform="translate(-12.96 -10.5)"/><path id="path17866" class="cls-12" d="M401.62,494c-.85-1.26-5.87,9.36-7,14.33-.92,4.19,4.56,5.35,4.77,3.78C400.05,507.55,402.26,495,401.62,494Z" transform="translate(-12.96 -10.5)"/></g><path id="path17868" class="cls-17" d="M382.29,445.17c1,1,.91,2,0,3.12a2.38,2.38,0,0,1-3.49.37,1.83,1.83,0,0,1-.19-2.94A2.62,2.62,0,0,1,382.29,445.17Z" transform="translate(-12.96 -10.5)"/><path id="path17870" class="cls-17" d="M386.67,426.18c1.06,1,.92,2,0,3.12a2.38,2.38,0,0,1-3.49.37,1.84,1.84,0,0,1-.18-2.94A2.6,2.6,0,0,1,386.67,426.18Z" transform="translate(-12.96 -10.5)"/><path id="path17872" class="cls-18" d="M376.6,433.11c-1.41-1.51-5.67,4.39-4.28,5.22C373.76,438.12,375.49,437,376.6,433.11Z" transform="translate(-12.96 -10.5)"/><path id="path17874" class="cls-18" d="M387.72,417.72c-1.41-1.5-6.08,2.43-4.7,3.26C384.46,420.77,386.61,421.64,387.72,417.72Z" transform="translate(-12.96 -10.5)"/><path id="path17876" class="cls-19" d="M377.14,438.09c.6-1.68,3.45-3,4.49-1.46s-.35,5.36-2,5.52-3.1-2.39-2.51-4.06Z" transform="translate(-12.96 -10.5)"/><path id="path17878" class="cls-20" d="M371,444.25c.48-1.36,2.82-2.43,3.67-1.19s-.29,4.38-1.63,4.51S370.47,445.62,371,444.25Z" transform="translate(-12.96 -10.5)"/><path id="path17880" class="cls-21" d="M391.3,421.32c.4-1.13,2.32-2,3-1s-.24,3.61-1.34,3.72-2.08-1.61-1.68-2.74Z" transform="translate(-12.96 -10.5)"/><path id="path17882" class="cls-22" d="M392.67,428c1,1.27.63,4.1-1,4.17s-4-2.86-3.3-4.2,3.34-1.23,4.34,0Z" transform="translate(-12.96 -10.5)"/><path id="path17884" class="cls-18" d="M387.54,434.85c-1.78-1-5.14,4.06-3.57,4.47C385.29,438.7,387.6,438.91,387.54,434.85Z" transform="translate(-12.96 -10.5)"/><path id="path17886" class="cls-12" d="M380.76,408.82c-2.7-3.08-13.94,5.25-13,8.2C369.48,418.78,381.73,411.85,380.76,408.82Z" transform="translate(-12.96 -10.5)"/><path id="path17888" class="cls-12" d="M373.68,400.45c-3.41-2.27-10.12,8.1-10.46,11.3C367,410.41,375.4,403.13,373.68,400.45Z" transform="translate(-12.96 -10.5)"/><path id="path17890" class="cls-12" d="M362.76,396.59c-2.68.23-2.78,8.25-.55,9.34C364.67,405.64,365.75,397.69,362.76,396.59Z" transform="translate(-12.96 -10.5)"/></g><path id="path17892" class="cls-12" d="M365.57,379.36c-3.71-.08-7.28,11-.55,12.33C365.84,391.39,366,380.46,365.57,379.36Z" transform="translate(-12.96 -10.5)"/></g><path id="path41673" class="cls-11" d="M419.08,379.84c.05-2.13-25.65-5-35.81,2.39C372.19,393.18,387.92,400,395,397c2.33-1.17,5.48-3.74,9.86-7.36C411.46,384.15,420.83,381.27,419.08,379.84Z" transform="translate(-12.96 -10.5)"/><path id="path17894" class="cls-12" d="M417.93,376.87c.06-2.13-25.64-5.05-35.8,2.39C371.05,390.21,386.77,397,393.86,394c2.33-1.17,5.49-3.74,9.87-7.36C410.32,381.18,419.68,378.3,417.93,376.87Z" transform="translate(-12.96 -10.5)"/><path id="path17896" class="cls-13" d="M383.12,385.62a7.67,7.67,0,1,0,7.66-7.36A7.51,7.51,0,0,0,383.12,385.62Z" transform="translate(-12.96 -10.5)"/><path id="path27794" class="cls-23" d="M359.7,506.72a8.44,8.44,0,0,1,3.77,1.59c8,3.85,11.13-4.63,11.81-15.19-.26-13.36,6-24.41,5.53-26.2-.37-.57-5.15.38-7.41.78-8.45,1.47-11.17-.67-14.22-2.58-3.06,1.95-6,4.08-14.43,2.62-2.26-.4-8-1.15-8.4-.58-.34,1,7.28,9.29,7.32,26.8.68,10.56,3.61,18.24,11.61,14.39a8.45,8.45,0,0,1,4.42-1.63Z" transform="translate(-12.96 -10.5)"/><path id="path14915" class="cls-16" d="M337.09,514.28c0,7,12.46,4.9,12.93.2.34-7.48-4.23-13.12-3.18-20.1-4.34,4.9-9.47,9.7-9.75,19.9Z" transform="translate(-12.96 -10.5)"/><path id="path15886" class="cls-16" d="M380.07,513.3c0,7-12.46,4.9-12.93.2-.33-7.48,4.23-13.11,3.18-20.09,4.34,4.9,9.47,9.69,9.75,19.89Z" transform="translate(-12.96 -10.5)"/><path id="path16861" class="cls-16" d="M348.7,464.53c-.76-1.56,3.11-3.25,3.94-1.69,1.05,2,.84,6.89.84,6.89S349.47,466.11,348.7,464.53Z" transform="translate(-12.96 -10.5)"/><path id="path17832" class="cls-16" d="M366.94,463.78c.77-1.56-3.11-3.25-3.93-1.68-1.06,2-.85,6.89-.85,6.89S366.17,465.37,366.94,463.78Z" transform="translate(-12.96 -10.5)"/><path id="path40604" class="cls-24" d="M251.35,378.8a57.74,57.74,0,0,1-17.11-24.67c-6.25-37.75,6.79-43.26,24.67-33,10.42,6.76,19.25,14,26.26,22.68H285c-12.38-8.3-56.49-56.49-48.94,9.75,3,11.83,10,17.21,15.32,25.26Z" transform="translate(-12.96 -10.5)"/><path id="path40606" class="cls-24" d="M460.78,378.6a57.68,57.68,0,0,0,17.11-24.67c6.25-37.75-6.79-43.25-24.67-33-10.42,6.76-19.25,14-26.26,22.68h.2c12.38-8.3,56.49-56.49,48.94,9.75-3,11.83-10,17.21-15.32,25.26Z" transform="translate(-12.96 -10.5)"/></g><path id="path41675" class="cls-5" d="M576.82,206.52,524.69,354.13" transform="translate(-12.96 -10.5)"/></g></svg>