<?xml version='1.0' encoding='UTF-8'?>
<svg x="0px" y="0px" viewBox="0 0 32 32" version="1.1" xmlns="http://www.w3.org/2000/svg" xmlns:xlink="http://www.w3.org/1999/xlink" xml:space="preserve" id="TextBox">
  <path d="M27,2H5C4.5,2,4,2.5,4,3v26c0,0.5,0.5,1,1,1h22c0.5,0,1-0.5,1-1V3C28,2.5,27.5,2,27,2z M26,28H6V4h20V28z" fill="#727272" class="Black" />
  <g opacity="0.75" class="st0">
    <path d="M24,26H8v-2h16V26z M24,20H8v2h16V20z" fill="#727272" opacity="0.75" class="Black" />
  </g>
  <path d="M22,18h-3l-0.9-2.7h-4.3L13,18h-3l4.4-12h3.2L22,18z M17.5,13.3l-1.3-4c-0.1-0.3-0.2-0.7-0.2-1.1h-0.1  c0,0.4-0.1,0.7-0.2,1l-1.3,4.1H17.5z" fill="#1177D7" class="Blue" />
</svg>