<?xml version='1.0' encoding='UTF-8'?>
<svg x="0px" y="0px" viewBox="0 0 32 32" version="1.1" xmlns="http://www.w3.org/2000/svg" xmlns:xlink="http://www.w3.org/1999/xlink" enable-background="new 0 0 32 32" xml:space="preserve" id="Layer_1">
  <g id="StepLine3D">
    <g opacity="0.75" class="st1">
      <polygon points="20,22 20,18 6,18 6,26 0,26 0,30 10,30 10,22 16,22 16,26 24,26 24,32 28,32 28,22   " fill="#039C23" opacity="0.75" class="Green" />
      <polygon points="16,2 16,6 6,6 6,10 0,10 0,14 10,14 10,10 20,10 20,6 28,6 28,2   " fill="#1177D7" opacity="0.75" class="Blue" />
    </g>
    <g opacity="0.35" class="st2">
      <path d="M22,16l-2,2H6l2-2H22z M22,20l-2,2h8l2-2H22z M2,24l-2,2h6v-2H2z" fill="#039C23" opacity="0.35" class="Green" />
      <path d="M0,10l2-2h4v2H0z M16,6V4H8L6,6H16z M28,2l2-2H18l-2,2H28z" fill="#1177D7" opacity="0.35" class="Blue" />
    </g>
    <path d="M22,16v4l-2,2v-4L22,16z M28,22v10l2-2V20L28,22z M10,30l2-2v-6h-2V30z" fill="#039C23" class="Green" />
    <path d="M28,2l2-2v4l-2,2V2z M20,10l2-2V6h-2V10z M10,14l2-2v-2h-2V14z" fill="#1177D7" class="Blue" />
  </g>
</svg>