<?xml version="1.0" encoding="utf-8"?>
<!-- Generator: Adobe Illustrator 22.0.1, SVG Export Plug-In . SVG Version: 6.00 Build 0)  -->
<svg version="1.1"
	 id="svg2" inkscape:output_extension="org.inkscape.output.svg.inkscape" inkscape:version="0.48.2 r9819" sodipodi:docname="AJAX1.svg" sodipodi:version="0.32" xmlns:cc="http://creativecommons.org/ns#" xmlns:dc="http://purl.org/dc/elements/1.1/" xmlns:inkscape="http://www.inkscape.org/namespaces/inkscape" xmlns:rdf="http://www.w3.org/1999/02/22-rdf-syntax-ns#" xmlns:sodipodi="http://sodipodi.sourceforge.net/DTD/sodipodi-0.dtd" xmlns:svg="http://www.w3.org/2000/svg"
	 xmlns="http://www.w3.org/2000/svg" xmlns:xlink="http://www.w3.org/1999/xlink" x="0px" y="0px" viewBox="0 0 715.5 859.5"
	 style="enable-background:new 0 0 715.5 859.5;" xml:space="preserve">
<style type="text/css">
	.st0{fill:#007FFF;}
	.st1{fill:#393939;stroke:#000000;stroke-width:1.5;}
	.st2{fill:#D5B5AF;stroke:#000000;stroke-width:1.5;}
	.st3{fill:#FFFFFF;stroke:#000000;stroke-width:1.5;}
	.st4{fill:none;stroke:#000000;stroke-width:1.5;}
	.st5{fill:#CF223F;stroke:#000000;stroke-width:1.5;}
	.st6{fill:#ECD718;}
	.st7{fill:#ECD618;stroke:#000000;stroke-width:1.5;}
	.st8{fill:url(#path35723_1_);stroke:#000000;stroke-width:1.5;}
	.st9{fill:url(#path35725_1_);stroke:#000000;stroke-width:1.5;}
	.st10{fill:#FFFFFF;fill-opacity:0.7765;}
	.st11{stroke:#000000;}
	.st12{stroke:#777772;stroke-width:1.5;}
	.st13{fill:#270000;stroke:#000000;}
	.st14{fill:#800000;stroke:#000000;stroke-width:0.4364;}
	.st15{fill:#FFFFFF;stroke:#000000;stroke-width:0.8;}
	.st16{stroke:#000000;stroke-width:0.6528;}
	.st17{stroke:#000000;stroke-width:0.4878;}
	.st18{stroke:#000000;stroke-width:0.6877;}
	.st19{stroke:#000000;stroke-width:0.5614;}
	.st20{stroke:#000000;stroke-width:0.4632;}
	.st21{stroke:#000000;stroke-width:0.6253;}
	.st22{fill:url(#path27794_1_);stroke:#000000;stroke-width:0.4364;}
	.st23{stroke:#000000;stroke-width:1.5;}
</style>
<sodipodi:namedview  bordercolor="#666666" borderopacity="1.0" fit-margin-bottom="0.5" fit-margin-left="0.5" fit-margin-right="0.5" fit-margin-top="0.5" gridtolerance="10.0" guidetolerance="10.0" id="base" inkscape:current-layer="svg2" inkscape:cx="400.82899" inkscape:cy="370.95435" inkscape:pageopacity="0.0" inkscape:pageshadow="2" inkscape:window-height="1004" inkscape:window-maximized="1" inkscape:window-width="1280" inkscape:window-x="-8" inkscape:window-y="-8" inkscape:zoom="0.5" objecttolerance="10.0" pagecolor="#ffffff" showgrid="false">
	</sodipodi:namedview>
<path id="path3134" inkscape:connector-curvature="0" sodipodi:nodetypes="czcccczczc" class="st0" d="M194.4,11.7
	c0,0-180.2,250.2-181.4,364c-1.2,113.8,117.9,249.6,117.9,249.6v221.9l439.1-1.2v-223c0,0,130.9-139.8,131.7-254.2
	c0.8-114.5-179.1-358.2-179.1-358.2s2.2,212.5-164.1,214.9C192.2,227.9,194.4,11.7,194.4,11.7L194.4,11.7z"/>
<g id="g42646" transform="translate(231.73062,396.52023)">
	<path id="path23740" inkscape:connector-curvature="0" sodipodi:nodetypes="cccccc" class="st1" d="M172.3,242.6L276.9-29.8
		c-49.5-75.8,41.7-132.7,68.6-160.9c0.9,65.7,28,136-51.8,168.8l-97.9,270.1L172.3,242.6L172.3,242.6z"/>
	<path id="path19856" inkscape:connector-curvature="0" sodipodi:nodetypes="cccccccccccssccccccccc" class="st2" d="M-66.7,307.3
		c35.2-3.5,68.8-2.1,103.1-2.8c28-1,56,4.1,84,6.4c25.5,1.8,50.9-1.3,76.4-2l66.8,3.6l45.8,2c7,0.4,6.6,4,6.4,7.6
		c-1.9,19-11.6,31.8-18.3,46.9c-8.2,10.9-16.8,19.3-25.5,27.1c-5.5,5.6-13.8,6.9-24.7,4c-5.1-3-48.5,0-72.8,0c0,0-9.2-2.1-15.5-2
		s-4.3,2.2-9.9,2.4s-7.7-1.9-12.7-1.6c-3.5,0.5-3.1,2.7-7.6,2.8c-12.9,0.2-41.4-4.2-44.6-2.4c-22.9,12.4-55.1,5.5-84.4,4.8h-30.6
		c-11-0.1-15.4-8.2-19.1-17.1c-3.2-9.4-8.1-13.8-12.3-20.3c-10.8-19.2-7.8-33.8-8.2-49.5C-73.2,308.4-69.7,308.7-66.7,307.3
		L-66.7,307.3z"/>
	<path id="path20827" inkscape:connector-curvature="0" sodipodi:nodetypes="cccccc" class="st2" d="M-70.3,309
		c10.5-15.2,44.9-27.9,67.1-42.6l260.1,11.8c19.2,10.1,36.8,22.2,54.6,34c5.7,5.1,2.9,4.9,0.6,4.9C184.6,319,57.2,321.6-70.3,309z"
		/>
	<path id="path21798" inkscape:connector-curvature="0" sodipodi:nodetypes="cccc" class="st3" d="M104.2,243.7
		c-213.3-224.3-121-350.5-85.5-414.1c-169.6,145.5-90,309.5-2.3,431L104.2,243.7z"/>
	<path id="path22769" inkscape:connector-curvature="0" sodipodi:nodetypes="cc" class="st4" d="M15.8-168.2
		C-77.3-72-74.9,90.2,44,241.5"/>
	<g id="g25844">
		<path id="path18883" inkscape:connector-curvature="0" sodipodi:nodetypes="cccccccc" class="st5" d="M8.9,244.5
			c10.6-17.4,7.7-37.6-4-48.9c-38.1-34.3-92.4-83.2-111.4-136.9c-10.7-33.5-23-64.6-26.7-108.2c-5-34.1-56.8-20.2-50.1,20.3
			l14.7,62.5C-136.9,184-47.9,207.1,4.1,262.4L8.9,244.5z"/>
		<g id="g24841">
			<path id="text24739" inkscape:connector-curvature="0" sodipodi:nodetypes="cccccsssssssssssccsscccc" class="st6" d="
				M-135.7,1.8l0.9,13.6l-1.7,0c-0.5-1.5-1.3-1.8-3.5-1.7l-13.7,0.9c-2.7,0.2-4.6-0.1-5.9-0.7c-1.2-0.6-2.3-1.8-3.2-3.6
				c-0.9-1.8-1.4-4-1.5-6.5c-0.1-3.1,0.4-5.7,1.6-7.7c1.2-2,4-3.1,5.5-3.2c1-0.1,1.8,0.3,2.4,1c0.6,0.8,1,1.7,1,2.8
				c0,1.1-0.2,2.1-0.7,2.9c-0.5,0.8-1.2,1.2-1.9,1.3c-0.4,0-0.7,0-1-0.1c-0.1-0.1-0.7-0.2-1.1-0.8c-0.8-1.5-2.4-1-2.8-0.7
				c-1.4,0.9-1.4,2-1.4,3.5c0,0.8,0.2,1.4,0.5,1.9c0.3,0.5,0.8,0.8,1.4,1c0.6,0.2,2.4,0.2,5.3,0l14.9-0.9c2.5,0,2.8-0.8,3.1-2.8
				L-135.7,1.8L-135.7,1.8z"/>
			<path id="text24743" inkscape:connector-curvature="0" class="st6" d="M-130.4,25.2l3.3,11.8l-0.7,0.3c-0.3-1.1-0.5-1.5-0.9-1.9
				c-0.3-0.3-0.7-0.5-1.2-0.6c-0.4-0.1-1.4,0.1-3,0.6l-13.4,4c-2.5,0.7-2.3,0.8-3,1.4c-0.7,0.6-1.2,1.4-1.5,2.5
				c-0.3,1-0.2,2.2,0.1,3.6c0.4,1.5,1.1,2.7,2.1,3.6c0.5,0.5,1.1,0.8,1.7,1.1c1.4,1.2,13.4-3,20.1-4.5c0.5-0.4,0.7-0.9,0.8-1.3
				c0.1-0.7,0-1.7-0.3-2.8l0.7-0.2l2.5,8.8l-0.8,0.1c-0.9-1.9-2.7-2.1-5-1.6l-10.4,3.1c-3.2,1-5.6,1.4-7.2,1.4c-1.6,0-3.2-0.7-4.8-2
				c-1.7-1.3-2.9-3.5-3.7-6.4c-0.7-2.5-0.9-4.4-0.6-6c0.4-2.1,1.1-3.7,2.2-4.9c1.1-1.2,2.8-2.1,5.1-2.8l13.4-4
				c2.6-0.6,3.5-1.5,3.4-3.4L-130.4,25.2L-130.4,25.2z"/>
			<path id="text24757" inkscape:connector-curvature="0" class="st6" d="M-109.9,79.5l-8.1,4.7l-0.5-0.9c1.9-1.6,3-3.6,3.4-6
				c0.4-2.4,0.1-4.6-0.9-6.6c-0.8-1.6-1.7-2.6-2.8-3.1c-1.1-0.5-2.1-0.6-3-0.1c-0.5,0.3-1,0.7-1.2,1.3c-0.4,0.8-0.6,1.8-0.7,3
				c-0.1,0.9,0,3,0.3,6.1c0.4,4.4,0.2,7.6-0.4,9.5c-0.7,1.9-1.8,3.3-3.4,4.2c-2.1,1.1-4.4,1.1-6.8-0.1c-2.5-1.2-4.5-3.4-6-6.5
				c-0.5-1-0.9-1.9-1.1-2.9c-0.3-1-0.5-2.2-0.7-3.8c-0.1-0.9-0.3-1.5-0.5-2c-0.2-0.4-0.5-0.7-1-1.1c-0.5-0.3-1-0.5-1.6-0.5l-0.4-0.8
				l9.4-5.1l0.4,0.8c-2.3,2.1-3.7,4.5-4.1,7.1c-0.4,2.7-0.1,5.1,1,7.3c0.8,1.7,1.9,2.9,3.1,3.5c1.2,0.6,2.4,0.6,3.3,0.1
				c0.6-0.3,1.1-0.8,1.4-1.5c0.4-0.7,0.6-1.6,0.7-2.6c0.1-1.1,0.1-2.8-0.1-5.2c-0.3-3.4-0.3-6-0.1-7.6c0.2-1.7,0.6-3.1,1.2-4.3
				c0.6-1.2,1.5-2.1,2.7-2.7c2-1.1,4.1-1.1,6.4,0c2.3,1.1,4.1,3,5.4,5.7c0.5,1,0.9,2,1.1,3.1c0.2,0.8,0.4,1.8,0.5,3.1
				c0.1,1.2,0.3,2.1,0.5,2.5c0.2,0.4,0.4,0.7,0.8,0.8c0.3,0.1,0.9,0.1,1.7-0.1C-110.3,78.8-109.9,79.5-109.9,79.5z"/>
			<path id="text24761" inkscape:connector-curvature="0" class="st6" d="M-91.8,111.4l-6.1,4.4l-0.4-0.6c1.2-1.4,1.9-2.5,2.2-3.4
				c0.3-0.9,0.4-1.9,0.2-2.9c-0.1-0.6-0.5-1.4-1.2-2.5l-1.2-1.7l-17.3,12.6c-1.1,0.8-1.8,1.4-2,1.8c-0.2,0.3-0.3,0.8-0.2,1.3
				c0,0.5,0.3,1.1,0.7,1.8l0.5,0.8l-0.6,0.4l-8.2-12.3l0.6-0.4l0.5,0.8c0.5,0.7,0.9,1.1,1.4,1.4c0.4,0.2,0.8,0.2,1.3,0.1
				c0.3-0.1,1.1-0.5,2.2-1.3L-102,99l-1.1-1.7c-1.1-1.6-2.1-2.5-3.3-2.7c-1.6-0.4-3.3-0.1-5.1,0.9l-0.4-0.7l6.1-4.4L-91.8,111.4
				L-91.8,111.4z"/>
			<path id="text24765" inkscape:connector-curvature="0" class="st6" d="M-93.6,151.1l-0.6,0.5l-13.5-14.5l0.6-0.5l0.9,0.9
				c0.8,0.8,1.5,1.4,2.1,1.7c0.5,0.2,1,0.3,1.5,0.2c0.4-0.1,1.1-0.5,2.2-1.4l13.9-11.7c1.1-0.9,1.7-1.6,1.8-1.9
				c0.1-0.4,0.1-0.9-0.1-1.5c-0.2-0.6-0.7-1.3-1.4-2.1l-0.9-0.9l0.6-0.5l13.5,14.5l-0.6,0.5l-0.9-0.9c-0.8-0.8-1.5-1.4-2.1-1.7
				c-0.5-0.2-1-0.3-1.5-0.2c-0.4,0.1-1.1,0.5-2.2,1.4l-13.9,11.7c-1.1,0.9-1.7,1.6-1.8,1.9c-0.1,0.4-0.1,0.9,0.2,1.5
				c0.2,0.6,0.7,1.3,1.4,2.1L-93.6,151.1L-93.6,151.1z"/>
			<path id="text24769" inkscape:connector-curvature="0" class="st6" d="M-48.5,154.3l-5.7,8.5l-0.7-0.5c1-2.6,1.1-4.9,0.5-7.1
				c-0.7-2.2-1.9-3.8-3.7-5.1c-1.5-1-3.2-1.5-5.1-1.5c-1.9,0-3.6,0.6-5.1,1.6c-2,1.3-3.7,3.1-5.2,5.3c-1.5,2.2-2.5,4.4-3.2,6.6
				c-0.7,2.2-0.7,4.1-0.1,5.8c0.6,1.7,1.8,3.2,3.7,4.5c1.5,1,3.2,1.6,4.9,1.8c1.7,0.2,3.9-0.1,6.4-0.8l-1.4,2.1
				c-2.3,0.5-4.5,0.6-6.4,0.2c-1.9-0.4-3.9-1.2-5.9-2.5c-2.6-1.8-4.6-3.8-5.9-6.2c-1.3-2.4-1.9-5-1.7-7.7c0.2-2.7,1.1-5.2,2.5-7.4
				c1.6-2.3,3.7-4.2,6.3-5.4c2.6-1.3,5.4-1.8,8.2-1.6c2.8,0.2,5.4,1.1,7.8,2.7c1.7,1.2,3.3,2.7,4.7,4.8c0.8,1.2,1.4,1.9,1.7,2.1
				c0.4,0.3,0.8,0.3,1.3,0.2c0.5-0.1,1-0.4,1.5-1L-48.5,154.3L-48.5,154.3z"/>
			<path id="text24773" inkscape:connector-curvature="0" class="st6" d="M-33,174.4l-7.6,8.8l0.5,0.4c1.6,1.4,3.2,2,4.6,1.8
				c1.5-0.2,3-1.1,4.7-2.6l0.7,0.6l-9.8,11.3l-0.7-0.6c0.9-1.4,1.5-2.6,1.7-3.8c0.2-1.2,0.1-2.2-0.3-3c-0.4-0.8-1.2-1.8-2.4-2.8
				l-5.3,6.1c-1,1.2-1.6,2-1.7,2.3c-0.1,0.4-0.1,0.8,0.1,1.2c0.2,0.5,0.6,1,1.4,1.6l1.5,1.3c2.4,2.1,4.7,3.3,6.9,3.6
				c2.2,0.3,4.5-0.2,6.8-1.6l0.7,0.6l-7.1,5.9l-22.1-19.1l0.5-0.6l0.8,0.7c0.7,0.6,1.4,1,2.1,1.2c0.5,0.1,0.9,0.1,1.4-0.1
				c0.4-0.1,1-0.7,1.9-1.8l12.3-14.2c0.8-1,1.3-1.6,1.5-1.9c0.2-0.5,0.2-1,0-1.5c-0.2-0.7-0.7-1.4-1.6-2.1l-0.8-0.7l0.5-0.6
				l21.4,18.5l-5.5,6.4l-0.7-0.6c1-1.9,1.4-3.4,1.4-4.7c-0.1-1.2-0.6-2.6-1.5-3.9c-0.5-0.8-1.8-2-3.7-3.7L-33,174.4L-33,174.4z"/>
		</g>
	</g>
	<g id="g25833">
		<path id="path19854" inkscape:connector-curvature="0" sodipodi:nodetypes="cccccccc" class="st5" d="M243.4,246.2
			c-10.6-17.4-7.7-37.6,4-48.9c38.1-34.3,92.4-83.2,111.4-136.9c10.7-33.5,23-64.6,26.7-108.2c5-34.1,56.8-20.2,50.1,20.3L420.9,35
			c-31.6,150.8-120.7,173.9-172.7,229.2L243.4,246.2z"/>
		<g id="g24832">
			<path id="path24785" inkscape:connector-curvature="0" class="st6" d="M287.7,178.9l4.9,5.7L292,185c-1.5-1-2.7-1.7-3.6-1.9
				c-0.9-0.2-1.9-0.2-2.9,0c-0.6,0.1-1.4,0.6-2.4,1.4l-1.6,1.3l14,16.2c0.9,1.1,1.6,1.7,1.9,1.9c0.4,0.2,0.8,0.2,1.3,0.1
				c0.5-0.1,1.1-0.4,1.8-0.9l0.7-0.6l0.5,0.6l-11.6,9.2l-0.5-0.6l0.7-0.6c0.6-0.5,1.1-1,1.3-1.6c0.2-0.4,0.2-0.8,0-1.3
				c-0.1-0.3-0.6-1-1.5-2.1l-14-16.2l-1.6,1.3c-1.5,1.2-2.3,2.3-2.5,3.5c-0.2,1.6,0.2,3.3,1.3,5l-0.6,0.5l-4.9-5.7L287.7,178.9
				L287.7,178.9z"/>
			<path id="path24787" inkscape:connector-curvature="0" class="st6" d="M390.3,69.7l-4.1,9.8l2.2,2.3c0.7,0.8,1.4,1.3,2,1.5
				c0.8,0.3,1.5,0.2,2.1-0.2c0.4-0.3,0.9-1.1,1.6-2.5l0.8,0.3L390.3,92l-0.8-0.3c0-1.2,0.4-1.6-0.2-3s-1.5-2.3-3.2-4.1l-15.8-17.2
				l1.9-4.5l23.7-0.3c2.6-0.1,4.2-0.3,5.1-0.7c0.6-0.3,1.1-0.8,1.6-1.7l0.8,0.3l-5.6,13.4l-0.8-0.3l0.2-0.6c0.4-1.1,0.6-1.9,0.5-2.5
				c-0.1-0.4-0.3-0.7-0.8-0.8c-0.2-0.1-0.5-0.2-0.8-0.2c-0.1,0-0.7,0-1.8,0L390.3,69.7L390.3,69.7z M388.5,69.8l-11.3,0.2l7.8,8.2
				L388.5,69.8L388.5,69.8z"/>
			<path id="path24789" inkscape:connector-curvature="0" class="st6" d="M352,140.9l-6.8,8.1l1.4,2.9c0.5,0.9,1,1.6,1.5,2
				c0.6,0.5,1.3,0.7,2.1,0.4c0.4-0.2,1.2-0.8,2.3-1.9l0.6,0.5l-7.7,9.2l-0.6-0.5c0.3-1.1,0.9-1.4,0.7-2.9c-0.2-1.5-0.7-2.6-1.8-4.9
				l-9.9-21.1l3.1-3.7l22.7,6.9c2.5,0.7,4.1,1,5,0.9c0.7-0.1,1.3-0.5,2-1.1l0.6,0.5l-9.4,11.1l-0.6-0.5l0.4-0.5
				c0.8-0.9,1.2-1.6,1.2-2.2c0-0.4-0.1-0.7-0.5-1c-0.2-0.2-0.4-0.3-0.7-0.4c-0.1-0.1-0.7-0.3-1.7-0.6L352,140.9L352,140.9z
				 M350.3,140.4l-10.8-3.2l5,10.2L350.3,140.4L350.3,140.4z"/>
			<path id="path24791" inkscape:connector-curvature="0" class="st6" d="M380.5,45l-0.7-0.3l5.8-19l0.7,0.3l-0.4,1.2
				c-0.3,1.1-0.4,2-0.4,2.7c0,0.5,0.2,1,0.6,1.4c0.2,0.3,1,0.7,2.3,1.2l17.1,6.2c1.3,0.5,2.2,0.7,2.6,0.6c0.4-0.1,0.8-0.4,1.2-0.9
				c0.4-0.5,0.8-1.3,1.1-2.3l0.4-1.2l0.7,0.3l-5.8,19l-0.7-0.3l0.4-1.2c0.3-1.1,0.4-2,0.4-2.7c0-0.5-0.2-1-0.6-1.4
				c-0.2-0.3-1-0.7-2.3-1.2l-17.1-6.2c-1.3-0.5-2.2-0.7-2.6-0.6c-0.4,0.1-0.8,0.4-1.2,0.9c-0.4,0.5-0.8,1.3-1.1,2.3L380.5,45
				L380.5,45z"/>
			<path id="text24795" inkscape:connector-curvature="0" class="st6" d="M316,173.2l5.3,6.1c1,1.2,1.7,1.8,2.2,2
				c0.4,0.2,0.9,0.2,1.4,0.1c0.5-0.1,1.3-0.6,2.3-1.5l0.5,0.6l-11.1,9.7l-0.5-0.6c1-0.9,1.6-1.6,1.8-2.1c0.2-0.5,0.2-1,0.1-1.4
				s-0.7-1.2-1.7-2.4l-12.3-14.1c-1-1.2-1.7-1.8-2.2-2c-0.4-0.2-0.9-0.2-1.4-0.1c-0.5,0.1-1.3,0.6-2.3,1.5l-0.5-0.6l10.1-8.8
				c2.6-2.3,4.7-3.8,6.2-4.5c1.5-0.7,3.1-0.9,4.7-0.6c1.6,0.3,3,1.1,4.2,2.4c1.4,1.6,2,3.4,1.8,5.5c-0.2,1.3-0.7,2.7-1.8,4.2
				l11.6,2.8c1.5,0.4,2.5,0.5,3,0.5c0.7-0.1,1.4-0.3,2-0.8l0.5,0.6l-6.8,6l-15.7-3.8L316,173.2L316,173.2z M306.6,162.6l8.3,9.5
				l0.9-0.8c1.5-1.3,2.5-2.4,3-3.3c0.5-0.9,0.6-1.9,0.4-3c-0.2-1.1-0.8-2.2-1.8-3.3c-1.4-1.7-2.9-2.5-4.4-2.6
				c-1.5-0.1-3.1,0.6-4.8,2.1L306.6,162.6L306.6,162.6z"/>
			<path id="text24799" inkscape:connector-curvature="0" sodipodi:nodetypes="cccccccscccccssscccssssccc" class="st6" d="
				M364.3,86.5l0.7,0.4c-0.4,1.1-0.4,2.2,0,3.5c0.3,0.9,1.4,2.7,3.2,5.2l13.4,18.6l-1.5,2.9l-23.9-3.1c-3.2-0.4-5.1-0.6-5.8-0.5
				c-0.7,0.1-1.4,0.6-2.1,1.6l-0.7-0.4l7.5-12.7l0.7,0.4l-0.3,0.4c-0.7,1.2-1,2-1,2.6c0,0.4,0.2,0.7,0.6,1c0.2,0.1,0.5,0.3,0.9,0.3
				c0.4,0.1,1.5,0.2,3.2,0.5l16.6,2.2l-8.7-12.2c-1.1-1.5-1.8-2.4-2.2-2.9c-0.4-0.4-0.8-0.7-1.1-0.9c-0.4-0.2-0.8-0.3-1.2-0.3
				c-0.4,0-0.8,0.2-1.2,0.5c-0.6,0.4-1.1,1.1-1.7,2l-0.7-0.4C359.2,95.2,364.3,86.5,364.3,86.5z"/>
			<path id="text24803" inkscape:connector-curvature="0" class="st6" d="M411.9-2.6l9.1,3.5l-5.9,24.5l-0.7-0.2l0.2-0.9
				c0.2-0.8,0.2-1.5,0.1-2c-0.1-0.4-0.3-0.8-0.7-1.1c-0.3-0.2-1.1-0.5-2.4-0.9l-17.4-4.5c-1.4-0.4-2.2-0.5-2.6-0.4
				c-0.4,0.1-0.7,0.3-1.1,0.7c-0.4,0.4-0.6,1-0.8,1.7l-0.2,0.9l-0.7-0.2l3.5-14.7l0.7,0.2l-0.3,1.2c-0.2,0.8-0.2,1.5-0.1,2
				c0.1,0.4,0.3,0.8,0.7,1.1c0.3,0.2,1.1,0.5,2.4,0.9l16.9,4.4c1.4,0.4,2.2,0.5,2.6,0.4c0.4-0.1,0.8-0.3,1.1-0.7
				c0.2-0.3,0.5-1.1,0.8-2.4l0.6-2.3c0.4-1.5,0.4-2.8,0.1-3.9c-0.3-1.1-0.8-2.2-1.7-3.1c-0.9-1-2.3-2.1-4.2-3.3L411.9-2.6L411.9-2.6
				z"/>
		</g>
	</g>
	<g id="g25825">
		<path id="path17912" inkscape:connector-curvature="0" sodipodi:nodetypes="ccccccccc" class="st5" d="M-2.7,261.2
			c-10.9-31,24.4-31.8,32.2-25.5l164.7,0.8c9.5,2.1,15.2,2.1,22.3,0c13.3-2.1,32.9-13,38.2,2.4c-0.4,14.8,1.4,27.5,2.4,41
			c0.3,6.5-1.6,14.8-6,15.5L35.5,297C7.9,301.3-6,287.8-2.7,261.2L-2.7,261.2z"/>
		<g id="g24850">
			<path id="text24711" inkscape:connector-curvature="0" sodipodi:nodetypes="cccccccccccsssccccccssscc" class="st6" d="
				M50.5,272.8c0.4,3,0.3,3.1,3.4,3.4v1.7H39.5V276c3.4,0.1,3.4-0.2,3.6-3.2V255c0-1.5-0.1-2.4-0.3-2.8c-0.7-0.7-1.7-0.5-2.7-0.5
				l0-1.5h12.6c4.6,0,7.9,0.7,9.9,2.1c2,1.4,3,3.2,3,5.3c0,1.8-0.6,3.3-1.9,4.6c-1.3,1.3-3.1,2.1-5.4,2.6c-1.5,0.3-4.1,0.5-7.8,0.5
				L50.5,272.8L50.5,272.8z M50.5,251.8v11.7c1.2,0.1,2.4,0.1,3.5-0.1c0.8-0.2,1.5-0.6,2.1-1.2c1-1,1.6-2.5,1.6-4.5
				c0-2-0.5-3.5-1.6-4.5c-1-0.9-2.6-1.4-4.7-1.4L50.5,251.8L50.5,251.8z"/>
			<path id="text24723" inkscape:connector-curvature="0" sodipodi:nodetypes="cccsscccczccccscccccssscccccc" class="st6" d="
				M101.5,268.9H90.9l-1.3,2.9c-0.4,1-0.6,1.8-0.6,2.4c0,0.8,0.3,1.5,1,1.9c0.4,0.2,1.4,0.4,3,0.5v0.8H81v-0.8
				c1.1-0.5,1.7-0.2,2.7-1.3s1.6-2.2,2.6-4.5l9.8-21.2l4.9,0l9.4,21.8c1,2.3,1.9,3.8,2.6,4.4c0.5,0.5,1.2,0.7,2.1,0.8v0.8h-14.6
				v-0.8h0.6c1.2,0,2-0.2,2.5-0.5c0.3-0.2,0.5-0.6,0.5-1c0-0.3,0-0.5-0.1-0.8c0-0.1-0.3-0.7-0.7-1.7L101.5,268.9L101.5,268.9z
				 M100.8,267.3l-4.5-10.4l-4.6,10.4H100.8z"/>
			
				<path id="text24731" inkscape:connector-curvature="0" sodipodi:nodetypes="ccsccccssscccccccccscccsscccccssccccssscccccc" class="st6" d="
				M183.4,261.5l7.4,10.9c1.3,1.9,2.2,3.1,2.8,3.5c0.6,0.4,1.2,0.7,2,0.7v0.8h-13.9v-0.8c1.1-0.1,1.8-0.3,2.2-0.5
				c0.3-0.3,0.5-0.6,0.5-0.9c0-0.3,0-0.5-0.1-0.7c-0.2-0.4-0.7-1.2-1.5-2.4l-3.7-5.5l-6.8,7.9c-0.3,0.5-0.1,1,0.5,1.3
				c0.5,0.3,0.8,0.4,1.5,0.6c0.3,0.1,0.9,0.1,1.8,0.1v0.8h-11v-0.8c1.3-0.2,2.2-0.5,3-1c0.9-0.6,2.3-2,3.9-4.1l5.7-6.9l-7.3-10.7
				c-1.2-1.8-1.9-2.7-2-2.9c-0.4-0.5-0.8-0.8-1.1-1c-0.4-0.2-0.9-0.3-1.5-0.4v-0.8h14.2v0.8H179c-0.8,0-1.4,0.1-1.7,0.4
				c-0.3,0.3-0.5,0.6-0.5,1c0,0.3,0,0.6,0.1,0.8l1.5,2.2l3.5,5.4l3-3.7c1.5-1.9,2.3-3.2,2.3-4c0-0.4-0.1-0.7-0.3-1.1
				c-0.2-0.3-0.5-0.6-0.9-0.8c-0.4-0.2-1-0.3-1.9-0.3v-0.8h10.5v0.8c-0.8,0-1.6,0-2.5,0.7L183.4,261.5L183.4,261.5z"/>
			<path id="path24793" inkscape:connector-curvature="0" class="st6" d="M147.8,276.9l0,0.8l-19.9,0.1l0-0.8l1.3,0
				c1.1,0,2-0.2,2.7-0.4c0.5-0.2,0.9-0.5,1.2-1c0.2-0.3,0.4-1.2,0.4-2.6l0.8-18.1c0.1-1.4,0-2.3-0.2-2.6c-0.2-0.4-0.6-0.7-1.2-0.9
				c-0.6-0.3-1.5-0.4-2.5-0.4l-1.3,0l0-0.8l19.9-0.1l0,0.8l-1.3,0c-1.1,0-2,0.2-2.7,0.4c-0.5,0.2-0.9,0.5-1.2,1
				c-0.2,0.3-0.4,1.2-0.4,2.6l-0.8,18.1c-0.1,1.4,0,2.3,0.2,2.6c0.2,0.4,0.6,0.7,1.2,0.9c0.6,0.3,1.5,0.4,2.5,0.4L147.8,276.9
				L147.8,276.9z"/>
		</g>
	</g>
	<g id="g40608">
		<path id="path2161" inkscape:connector-curvature="0" sodipodi:nodetypes="cccccccccccccccccccccccccccccc" class="st7" d="
			M195.2-52.9c7-8.7,15.8-15.9,26.3-22.7c17.9-10.2,30.9-4.7,24.7,33C242-31.2,235.7-23.7,229-17.9l0.8,2.4l-6.4,6
			c-6,6.7-1.5,11.7,1.2,16.7c10.9,22.6-0.1,36.9-10.3,47.3l-19.5,15.5c-3.5,5-4.7,10.4-5.6,15.9c-1.3,6.4-9.2,14.3-14.3,23.9
			c-3.2,7.5-2.2,14.4-3.6,23.9c-8.4,27.2-34.4,23.6-47,24.1c-12.6-0.4-38.6,3.2-47-24c-1.4-9.4-0.3-16.3-3.6-23.9
			c-5.2-9.6-13-17.5-14.3-23.9c-0.8-5.5-2.1-10.9-5.6-15.9L34.3,54.7C24.1,44.2,13.1,29.9,24,7.3c2.7-5,7.2-10,1.2-16.7l-6.4-6
			l0.8-2.4C12.9-23.6,6.6-31,2.5-42.4c-6.3-37.8,6.8-43.3,24.7-33c10.4,6.8,19.3,14,26.3,22.7L44.2-63c12.3-9.6,32.7-13.6,47.8-18.3
			c25.4-22.4,40.8-21.9,65.8,0.6c15.9,4.5,34.4,9.6,46.1,18L195.2-52.9L195.2-52.9z"/>
		
			<radialGradient id="path35723_1_" cx="-495.797" cy="598.2952" r="124.1242" gradientTransform="matrix(1 0 0 -1.0358 728.3182 557.4702)" gradientUnits="userSpaceOnUse">
			<stop  offset="0" style="stop-color:#BFBFB5"/>
			<stop  offset="1" style="stop-color:#BFBFB5;stop-opacity:0"/>
		</radialGradient>
		<path id="path35723" inkscape:connector-curvature="0" sodipodi:nodetypes="cccccccccccccccccccccccccccccc" class="st8" d="
			M195.2-52.9c7-8.7,15.8-15.9,26.3-22.7c17.9-10.2,30.9-4.7,24.7,33C242-31.2,235.7-23.7,229-17.9l0.8,2.4l-6.4,6
			c-6,6.7-1.5,11.7,1.2,16.7c10.9,22.6-0.1,36.9-10.3,47.3l-19.5,15.5c-3.5,5-4.7,10.4-5.6,15.9c-1.3,6.4-9.2,14.3-14.3,23.9
			c-3.2,7.5-2.2,14.4-3.6,23.9c-8.4,27.2-34.4,23.6-47,24.1c-12.6-0.4-38.6,3.2-47-24c-1.4-9.4-0.3-16.3-3.6-23.9
			c-5.2-9.6-13-17.5-14.3-23.9c-0.8-5.5-2.1-10.9-5.6-15.9L34.3,54.7C24.1,44.2,13.1,29.9,24,7.3c2.7-5,7.2-10,1.2-16.7l-6.4-6
			l0.8-2.4C12.9-23.6,6.6-31,2.5-42.4c-6.3-37.8,6.8-43.3,24.7-33c10.4,6.8,19.3,14,26.3,22.7L44.2-63c12.3-9.6,32.7-13.6,47.8-18.3
			c25.4-22.4,40.8-21.9,65.8,0.6c15.9,4.5,34.4,9.6,46.1,18L195.2-52.9z"/>
		
			<radialGradient id="path35725_1_" cx="-328.6882" cy="697.079" r="124.1242" gradientTransform="matrix(1 0 0 -1.0358 346.3553 662.9752)" gradientUnits="userSpaceOnUse">
			<stop  offset="0" style="stop-color:#BFBFB5"/>
			<stop  offset="1" style="stop-color:#BFBFB5;stop-opacity:0"/>
		</radialGradient>
		<path id="path35725" inkscape:connector-curvature="0" sodipodi:nodetypes="cccccccccccccccccccccccccccccc" class="st9" d="
			M195.2-52.9c7-8.7,15.8-15.9,26.3-22.7c17.9-10.2,30.9-4.7,24.7,33C242-31.2,235.7-23.7,229-17.9l0.8,2.4l-6.4,6
			c-6,6.7-1.5,11.7,1.2,16.7c10.9,22.6-0.1,36.9-10.3,47.3l-19.5,15.5c-3.5,5-4.7,10.4-5.6,15.9c-1.3,6.4-9.2,14.3-14.3,23.9
			c-3.2,7.5-2.2,14.4-3.6,23.9c-8.4,27.2-34.4,23.6-47,24.1c-12.6-0.4-38.6,3.2-47-24c-1.4-9.4-0.3-16.3-3.6-23.9
			c-5.2-9.6-13-17.5-14.3-23.9c-0.8-5.5-2.1-10.9-5.6-15.9L34.3,54.7C24.1,44.2,13.1,29.9,24,7.3c2.7-5,7.2-10,1.2-16.7l-6.4-6
			l0.8-2.4C12.9-23.6,6.6-31,2.5-42.4c-6.3-37.8,6.8-43.3,24.7-33c10.4,6.8,19.3,14,26.3,22.7L44.2-63c12.3-9.6,32.7-13.6,47.8-18.3
			c25.4-22.4,40.8-21.9,65.8,0.6c15.9,4.5,34.4,9.6,46.1,18L195.2-52.9L195.2-52.9z"/>
		<path id="path40702" inkscape:connector-curvature="0" sodipodi:nodetypes="cccsc" class="st10" d="M60.8-16.3
			c-0.1-2.1,25.6-5,35.8,2.4C107.7-2.9,91.9,3.8,84.9,0.8c-2.3-1.2-5.5-3.7-9.9-7.4C68.4-12,59-14.9,60.8-16.3L60.8-16.3z"/>
		<path id="path11993" inkscape:connector-curvature="0" sodipodi:nodetypes="cccsc" class="st11" d="M62.4-19.5
			c-0.1-2.1,25.6-5,35.8,2.4C109.3-6.2,93.6,0.6,86.5-2.4c-2.3-1.2-5.5-3.7-9.9-7.4C70-15.2,60.6-18.1,62.4-19.5z"/>
		
			<path id="path12964" sodipodi:cx="275.03314" sodipodi:cy="181.23341" sodipodi:rx="7.6591511" sodipodi:ry="7.3607426" sodipodi:type="arc" class="st12" d="
			M97.2-10.8c0,4.1-3.4,7.4-7.7,7.4s-7.7-3.3-7.7-7.4c0-4.1,3.4-7.4,7.7-7.4S97.2-14.8,97.2-10.8z"/>
		<path id="path13937" inkscape:connector-curvature="0" sodipodi:nodetypes="ccccccccccc" class="st13" d="M128,122.6
			c3.2,0.4,5.6,1.7,8.6,3.7c18.3,8.8,22.3-10.6,23.9-34.8c3.1-22.4,17.4-24.9,16.3-29c-0.8-1.3-11.3,0.9-16.5,1.8
			c-19.4,3.4-26.1-1.5-33.1-5.9c-7,4.5-13.7,9.4-33.1,6c-5.2-0.9-15.7-3.1-16.5-1.8c-1.1,4.1,13.3,6.6,16.3,29
			c1.6,24.2,5.5,43.6,23.9,34.8C121.4,124,124.3,122.8,128,122.6L128,122.6z"/>
		<path id="path14913" inkscape:connector-curvature="0" sodipodi:nodetypes="ccccccccccc" class="st14" d="M128,110.2
			c1.4,0.2,2.4,0.7,3.8,1.6c8,3.8,11.1-4.6,11.8-15.2c-0.3-13.4,6-24.4,5.5-26.2c-0.4-0.6-5.1,0.4-7.4,0.8
			c-8.5,1.5-11.2-0.7-14.2-2.6c-3.1,2-6,4.1-14.4,2.6c-2.3-0.4-8-1.2-8.4-0.6c-0.3,1,7.3,9.3,7.3,26.8c0.7,10.6,3.6,18.2,11.6,14.4
			C125.1,110.8,126.3,110.3,128,110.2L128,110.2z"/>
		<path id="path15888" inkscape:connector-curvature="0" sodipodi:nodetypes="cccc" class="st15" d="M151.2,70.1
			c1.1-5.4,4.9-4,7.7-4.9c3.3,3.7-3.5,18.5-7.2,18.3L151.2,70.1z"/>
		<path id="path16859" inkscape:connector-curvature="0" sodipodi:nodetypes="cccc" class="st15" d="M98.8,69.3
			c-1.1-5.4-4.9-4-7.7-4.9c-3.3,3.7,3.5,18.5,7.2,18.3L98.8,69.3z"/>
		<g id="g33721">
			<path id="path11931" inkscape:connector-curvature="0" sodipodi:nodetypes="ccc" class="st11" d="M114.8-17
				c3.7-0.1,7.3,11,0.6,12.3C114.5-5,114.3-15.9,114.8-17z"/>
			<g id="g29785">
				<path id="path11907" inkscape:connector-curvature="0" sodipodi:nodetypes="cssss" class="st16" d="M98,48.8c-1.1,1-0.9,2,0,3.1
					c0.9,1.1,2.4,1.3,3.5,0.4c1.1-1,1.1-1.8,0.2-2.9C100.8,48.2,99.1,47.8,98,48.8z"/>
				<path id="path11909" inkscape:connector-curvature="0" sodipodi:nodetypes="cssss" class="st16" d="M93.7,29.8
					c-1.1,1-0.9,2,0,3.1c0.9,1.1,2.4,1.3,3.5,0.4c1.1-1,1.1-1.8,0.2-2.9C96.4,29.2,94.7,28.8,93.7,29.8z"/>
				<path id="path11911" inkscape:connector-curvature="0" sodipodi:nodetypes="ccc" class="st17" d="M103.7,36.7
					c1.4-1.5,5.7,4.4,4.3,5.2C106.6,41.7,104.8,40.6,103.7,36.7z"/>
				<path id="path11913" inkscape:connector-curvature="0" sodipodi:nodetypes="ccc" class="st17" d="M92.6,21.3
					c1.4-1.5,6.1,2.4,4.7,3.3C95.9,24.4,93.7,25.3,92.6,21.3z"/>
				<path id="path11915" inkscape:connector-curvature="0" sodipodi:nodetypes="csss" class="st18" d="M103.2,41.7
					c-0.6-1.7-3.5-3-4.5-1.5c-1,1.5,0.4,5.4,2,5.5C102.3,45.9,103.8,43.4,103.2,41.7L103.2,41.7z"/>
				<path id="path11917" inkscape:connector-curvature="0" sodipodi:nodetypes="csss" class="st19" d="M109.4,47.9
					c-0.5-1.4-2.8-2.4-3.7-1.2s0.3,4.4,1.6,4.5C108.7,51.3,109.9,49.2,109.4,47.9z"/>
				<path id="path11919" inkscape:connector-curvature="0" sodipodi:nodetypes="csss" class="st20" d="M89,24.9c-0.4-1.1-2.3-2-3-1
					s0.2,3.6,1.3,3.7S89.4,26.1,89,24.9L89,24.9z"/>
				<path id="path11921" inkscape:connector-curvature="0" sodipodi:nodetypes="csss" class="st21" d="M87.7,31.7
					c-1,1.3-0.6,4.1,1,4.2c1.7,0.1,4-2.9,3.3-4.2C91.3,30.3,88.7,30.4,87.7,31.7L87.7,31.7z"/>
				<path id="path11923" inkscape:connector-curvature="0" sodipodi:nodetypes="ccc" class="st17" d="M92.8,38.5
					c1.8-1,5.1,4.1,3.6,4.5C95,42.3,92.7,42.5,92.8,38.5z"/>
				<path id="path11925" inkscape:connector-curvature="0" sodipodi:nodetypes="ccc" class="st11" d="M99.6,12.4
					c2.7-3.1,13.9,5.2,13,8.2C110.8,22.4,98.6,15.5,99.6,12.4z"/>
				<path id="path11927" inkscape:connector-curvature="0" sodipodi:nodetypes="ccc" class="st11" d="M106.7,4.1
					c3.4-2.3,10.1,8.1,10.5,11.3C113.4,14,104.9,6.7,106.7,4.1z"/>
				<path id="path11929" inkscape:connector-curvature="0" sodipodi:nodetypes="ccc" class="st11" d="M117.6,0.2
					c2.7,0.2,2.8,8.3,0.6,9.3C115.7,9.3,114.6,1.3,117.6,0.2z"/>
				<g id="g29750">
					<path id="path3154" inkscape:connector-curvature="0" sodipodi:nodetypes="csss" class="st11" d="M72.9-53.4
						c-2.5-0.8-7.3,4.5-6.5,7s8.2,4.9,9.8,3.1S75.4-52.6,72.9-53.4L72.9-53.4z"/>
					<path id="path4125" inkscape:connector-curvature="0" sodipodi:nodetypes="csss" class="st11" d="M58.8-37.1
						c-2.5-0.8-7.3,2.8-6.5,5.3s8.2,4.9,9.8,3.1S61.3-36.3,58.8-37.1L58.8-37.1z"/>
					<path id="path4127" inkscape:connector-curvature="0" sodipodi:nodetypes="csss" class="st11" d="M107.5-68.8
						c-2.5-0.8-9.8,3.4-9,5.9c0.8,2.5,9.1,3.7,10.7,2C110.8-62.7,109.9-68.1,107.5-68.8z"/>
					<path id="path4129" inkscape:connector-curvature="0" sodipodi:nodetypes="cssss" class="st11" d="M74.3-68.9
						c-1.6,1.5-2.3,5.1-0.8,6.8s4.9,1.5,6.5,0s1.4-4.2,0-5.9S76-70.3,74.3-68.9L74.3-68.9z"/>
					<path id="path5100" inkscape:connector-curvature="0" sodipodi:nodetypes="cssss" class="st11" d="M59.4-64.8
						c-1.6,1.5-1.4,3.1,0,4.8s3.7,2,5.3,0.6s1.7-2.8,0.3-4.5C63.6-65.7,61-66.3,59.4-64.8L59.4-64.8z"/>
					<path id="path5102" inkscape:connector-curvature="0" sodipodi:nodetypes="css" class="st11" d="M101.6-30
						c-2.4,2.2-16.9-14.6-13.5-15.5C89.3-45.8,103.4-31.7,101.6-30z"/>
					<path id="path5104" inkscape:connector-curvature="0" sodipodi:nodetypes="css" class="st11" d="M113.1-33.7
						c-2.1,2.6-16.8-14.3-13.5-15.5C102.7-50.3,114.8-35.8,113.1-33.7z"/>
					<path id="path6075" inkscape:connector-curvature="0" sodipodi:nodetypes="csss" class="st11" d="M100.7-83.5
						c-2.5-0.8-6.5,1.4-5.6,3.9c0.8,2.5,6.5,4.3,8.2,2.5C104.9-78.8,103.2-82.7,100.7-83.5L100.7-83.5z"/>
					<path id="path6077" inkscape:connector-curvature="0" sodipodi:nodetypes="ccc" class="st11" d="M54.4-12.3
						c1.3-0.8,13.5,12.8,10.7,13.8C60.4,1.4,54.1-3.5,54.4-12.3z"/>
					<path id="path6079" inkscape:connector-curvature="0" sodipodi:nodetypes="ccc" class="st11" d="M44.6,2.8
						c3.4-2.5,9.8,10.9,6.8,12.1C48.5,13.9,45.4,11,44.6,2.8z"/>
					<path id="path6081" inkscape:connector-curvature="0" sodipodi:nodetypes="ccc" class="st11" d="M73.5-0.8
						c4.9,3.3,13.1,11.7,10.7,15.5C81.1,15.7,74.7,4.8,73.5-0.8z"/>
					<path id="path8021" inkscape:connector-curvature="0" sodipodi:nodetypes="ccc" class="st11" d="M70,30.4
						c-3.6,5,11.1,16.5,15.7,11.5C79,40.2,74.5,35.2,70,30.4z"/>
					<path id="path8992" inkscape:connector-curvature="0" sodipodi:nodetypes="css" class="st11" d="M59.6,38
						c0.3-0.3,15.3,9.2,13.7,10.7C71.4,50.7,59.1,38.5,59.6,38L59.6,38z"/>
					<path id="path8994" inkscape:connector-curvature="0" sodipodi:nodetypes="css" class="st11" d="M64.7,77.1
						c1.1-3.1,8.2,14.1,7.4,15.8C71.1,95.5,64.5,77.8,64.7,77.1L64.7,77.1z"/>
					<path id="path9965" inkscape:connector-curvature="0" sodipodi:nodetypes="ccsc" class="st11" d="M35.1,18.5
						c-5,13.6,1.9,29.6,10.9,31.6c1.3-2-6.3-4.9-8.4-14.8C35.9,27.3,36.4,18,35.1,18.5z"/>
					<path id="path10936" inkscape:connector-curvature="0" sodipodi:nodetypes="csss" class="st11" d="M78.7,97.7
						c0.9-1.3,5.9,9.4,7,14.3c0.9,4.2-4.6,5.3-4.8,3.8C80.3,111.2,78.1,98.6,78.7,97.7z"/>
					<path id="path12966" inkscape:connector-curvature="0" sodipodi:nodetypes="ccccccc" class="st11" d="M116.5,28.1
						c5.8,6.7,10.8,3.4,13.5-0.1c8.2-8.6,16.1,0.3,10.4,6.2l-8.6,8.6c-3.1,3.3-12.6,3.7-15.3,0.4l-9.7-9.8
						C102.1,26.9,109,20.8,116.5,28.1L116.5,28.1z"/>
					<path id="path17836" inkscape:connector-curvature="0" sodipodi:nodetypes="csss" class="st11" d="M175.7-53.5
						c2.5-0.8,7.3,4.5,6.5,7c-0.8,2.5-8.2,4.9-9.8,3.1C170.7-45.2,173.2-52.8,175.7-53.5L175.7-53.5z"/>
					<path id="path17838" inkscape:connector-curvature="0" sodipodi:nodetypes="csss" class="st11" d="M189.8-37.2
						c2.5-0.8,7.3,2.8,6.5,5.3c-0.8,2.5-8.2,4.9-9.8,3.1C184.8-30.5,187.3-36.4,189.8-37.2L189.8-37.2z"/>
					<path id="path17840" inkscape:connector-curvature="0" sodipodi:nodetypes="csss" class="st11" d="M141.1-69
						c2.5-0.8,9.8,3.4,9,5.9c-0.8,2.5-9.1,3.7-10.7,2C137.8-62.9,138.7-68.2,141.1-69z"/>
					<path id="path17842" inkscape:connector-curvature="0" sodipodi:nodetypes="cssss" class="st11" d="M174.3-69
						c1.6,1.5,2.3,5.1,0.8,6.8s-4.9,1.5-6.5,0s-1.4-4.2,0-5.9S172.6-70.5,174.3-69L174.3-69z"/>
					<path id="path17844" inkscape:connector-curvature="0" sodipodi:nodetypes="cssss" class="st11" d="M189.2-65
						c1.6,1.5,1.4,3.1,0,4.8s-3.7,2-5.3,0.6s-1.7-2.8-0.3-4.5C185-65.8,187.6-66.4,189.2-65L189.2-65z"/>
					<path id="path17846" inkscape:connector-curvature="0" sodipodi:nodetypes="css" class="st11" d="M147-30.2
						c2.4,2.2,16.9-14.6,13.5-15.5C159.3-46,145.2-31.8,147-30.2z"/>
					<path id="path17848" inkscape:connector-curvature="0" sodipodi:nodetypes="css" class="st11" d="M135.5-33.8
						c2.1,2.6,16.8-14.3,13.5-15.5C145.9-50.4,133.8-36,135.5-33.8z"/>
					<path id="path17850" inkscape:connector-curvature="0" sodipodi:nodetypes="csss" class="st11" d="M147.9-83.6
						c2.5-0.8,6.5,1.4,5.6,3.9c-0.8,2.5-6.5,4.3-8.2,2.5C143.7-78.9,145.4-82.8,147.9-83.6L147.9-83.6z"/>
					<path id="path17852" inkscape:connector-curvature="0" sodipodi:nodetypes="ccc" class="st11" d="M194.2-12.5
						c-1.3-0.8-13.5,12.8-10.7,13.8C188.2,1.3,194.5-3.6,194.2-12.5z"/>
					<path id="path17854" inkscape:connector-curvature="0" sodipodi:nodetypes="ccc" class="st11" d="M204,2.6
						c-3.4-2.5-9.8,10.9-6.8,12.1C200.1,13.8,203.2,10.9,204,2.6z"/>
					<path id="path17856" inkscape:connector-curvature="0" sodipodi:nodetypes="ccc" class="st11" d="M175.1-0.9
						c-4.9,3.3-13.1,11.7-10.7,15.5C167.5,15.5,173.9,4.7,175.1-0.9z"/>
					<path id="path17858" inkscape:connector-curvature="0" sodipodi:nodetypes="ccc" class="st11" d="M178.6,30.3
						c3.6,5-11.1,16.5-15.7,11.5C169.6,40.1,174.1,35.1,178.6,30.3L178.6,30.3z"/>
					<path id="path17860" inkscape:connector-curvature="0" sodipodi:nodetypes="css" class="st11" d="M189,37.8
						c-0.3-0.3-15.3,9.2-13.7,10.7C177.2,50.6,189.5,38.3,189,37.8z"/>
					<path id="path17862" inkscape:connector-curvature="0" sodipodi:nodetypes="css" class="st11" d="M183.8,77
						c-1.1-3.1-8.2,14.1-7.4,15.8C177.5,95.3,184.1,77.6,183.8,77z"/>
					<path id="path17864" inkscape:connector-curvature="0" sodipodi:nodetypes="ccsc" class="st11" d="M213.5,18.3
						c5,13.6-1.9,29.6-10.9,31.6c-1.3-2,6.3-4.9,8.4-14.8C212.7,27.2,212.2,17.9,213.5,18.3L213.5,18.3z"/>
					<path id="path17866" inkscape:connector-curvature="0" sodipodi:nodetypes="csss" class="st11" d="M169.9,97.5
						c-0.9-1.3-5.9,9.4-7,14.3c-0.9,4.2,4.6,5.3,4.8,3.8C168.3,111,170.5,98.5,169.9,97.5z"/>
				</g>
				<path id="path17868" inkscape:connector-curvature="0" sodipodi:nodetypes="cssss" class="st16" d="M150.6,48.6
					c1.1,1,0.9,2,0,3.1c-0.9,1.1-2.4,1.3-3.5,0.4c-1.1-1-1.1-1.8-0.2-2.9C147.8,48.1,149.5,47.7,150.6,48.6z"/>
				<path id="path17870" inkscape:connector-curvature="0" sodipodi:nodetypes="cssss" class="st16" d="M154.9,29.7
					c1.1,1,0.9,2,0,3.1c-0.9,1.1-2.4,1.3-3.5,0.4c-1.1-1-1.1-1.8-0.2-2.9C152.2,29.1,153.9,28.7,154.9,29.7z"/>
				<path id="path17872" inkscape:connector-curvature="0" sodipodi:nodetypes="ccc" class="st17" d="M144.9,36.6
					c-1.4-1.5-5.7,4.4-4.3,5.2C142,41.6,143.8,40.5,144.9,36.6z"/>
				<path id="path17874" inkscape:connector-curvature="0" sodipodi:nodetypes="ccc" class="st17" d="M156,21.2
					c-1.4-1.5-6.1,2.4-4.7,3.3C152.7,24.3,154.9,25.1,156,21.2z"/>
				<path id="path17876" inkscape:connector-curvature="0" sodipodi:nodetypes="csss" class="st18" d="M145.4,41.6
					c0.6-1.7,3.5-3,4.5-1.5c1,1.5-0.4,5.4-2,5.5C146.3,45.8,144.8,43.2,145.4,41.6L145.4,41.6z"/>
				<path id="path17878" inkscape:connector-curvature="0" sodipodi:nodetypes="csss" class="st19" d="M139.2,47.7
					c0.5-1.4,2.8-2.4,3.7-1.2s-0.3,4.4-1.6,4.5C139.9,51.2,138.7,49.1,139.2,47.7z"/>
				<path id="path17880" inkscape:connector-curvature="0" sodipodi:nodetypes="csss" class="st20" d="M159.6,24.8
					c0.4-1.1,2.3-2,3-1s-0.2,3.6-1.3,3.7S159.2,25.9,159.6,24.8L159.6,24.8z"/>
				<path id="path17882" inkscape:connector-curvature="0" sodipodi:nodetypes="csss" class="st21" d="M160.9,31.5
					c1,1.3,0.6,4.1-1,4.2c-1.7,0.1-4-2.9-3.3-4.2C157.3,30.2,159.9,30.3,160.9,31.5L160.9,31.5z"/>
				<path id="path17884" inkscape:connector-curvature="0" sodipodi:nodetypes="ccc" class="st17" d="M155.8,38.3
					c-1.8-1-5.1,4.1-3.6,4.5C153.6,42.2,155.9,42.4,155.8,38.3z"/>
				<path id="path17886" inkscape:connector-curvature="0" sodipodi:nodetypes="ccc" class="st11" d="M149,12.3
					c-2.7-3.1-13.9,5.2-13,8.2C137.7,22.3,150,15.3,149,12.3z"/>
				<path id="path17888" inkscape:connector-curvature="0" sodipodi:nodetypes="ccc" class="st11" d="M141.9,3.9
					c-3.4-2.3-10.1,8.1-10.5,11.3C135.2,13.9,143.7,6.6,141.9,3.9z"/>
				<path id="path17890" inkscape:connector-curvature="0" sodipodi:nodetypes="ccc" class="st11" d="M131,0.1
					c-2.7,0.2-2.8,8.3-0.6,9.3C132.9,9.1,134,1.2,131,0.1z"/>
			</g>
			<path id="path17892" inkscape:connector-curvature="0" sodipodi:nodetypes="ccc" class="st11" d="M133.8-17.2
				c-3.7-0.1-7.3,11-0.6,12.3C134.1-5.1,134.3-16.1,133.8-17.2z"/>
		</g>
		<path id="path41673" inkscape:connector-curvature="0" sodipodi:nodetypes="cccsc" class="st10" d="M187.3-16.7
			c0.1-2.1-25.6-5-35.8,2.4c-11.1,10.9,4.6,17.7,11.7,14.7c2.3-1.2,5.5-3.7,9.9-7.4C179.7-12.4,189.1-15.3,187.3-16.7z"/>
		<path id="path17894" inkscape:connector-curvature="0" sodipodi:nodetypes="cccsc" class="st11" d="M186.2-19.7
			c0.1-2.1-25.6-5-35.8,2.4C139.3-6.3,155,0.5,162.1-2.5c2.3-1.2,5.5-3.7,9.9-7.4C178.6-15.3,188-18.2,186.2-19.7z"/>
		
			<path id="path17896" sodipodi:cx="275.03314" sodipodi:cy="181.23341" sodipodi:rx="7.6591511" sodipodi:ry="7.3607426" sodipodi:type="arc" class="st12" d="
			M151.4-10.9c0,4.1,3.4,7.4,7.7,7.4s7.7-3.3,7.7-7.4c0-4.1-3.4-7.4-7.7-7.4S151.4-15,151.4-10.9z"/>
		
			<radialGradient id="path27794_1_" cx="-104.8747" cy="242.4637" r="22.4627" gradientTransform="matrix(1 0 0 -0.9946 231.7306 331.8663)" gradientUnits="userSpaceOnUse">
			<stop  offset="0" style="stop-color:#FFFFFF"/>
			<stop  offset="1" style="stop-color:#FFFFFF;stop-opacity:0"/>
		</radialGradient>
		<path id="path27794" inkscape:connector-curvature="0" sodipodi:nodetypes="ccccccccccc" class="st22" d="M128,110.2
			c1.4,0.2,2.4,0.7,3.8,1.6c8,3.8,11.1-4.6,11.8-15.2c-0.3-13.4,6-24.4,5.5-26.2c-0.4-0.6-5.1,0.4-7.4,0.8
			c-8.5,1.5-11.2-0.7-14.2-2.6c-3.1,2-6,4.1-14.4,2.6c-2.3-0.4-8-1.2-8.4-0.6c-0.3,1,7.3,9.3,7.3,26.8c0.7,10.6,3.6,18.2,11.6,14.4
			C125.1,110.8,126.3,110.3,128,110.2L128,110.2z"/>
		<path id="path14915" inkscape:connector-curvature="0" sodipodi:nodetypes="cccc" class="st15" d="M105.4,117.8
			c0,7,12.5,4.9,12.9,0.2c0.3-7.5-4.2-13.1-3.2-20.1C110.8,102.8,105.6,107.6,105.4,117.8L105.4,117.8z"/>
		<path id="path15886" inkscape:connector-curvature="0" sodipodi:nodetypes="cccc" class="st15" d="M148.3,116.8
			c0,7-12.5,4.9-12.9,0.2c-0.3-7.5,4.2-13.1,3.2-20.1C142.9,101.8,148.1,106.6,148.3,116.8L148.3,116.8z"/>
		<path id="path16861" inkscape:connector-curvature="0" sodipodi:nodetypes="cscs" class="st15" d="M117,68
			c-0.8-1.6,3.1-3.3,3.9-1.7c1.1,2,0.8,6.9,0.8,6.9S117.7,69.6,117,68z"/>
		<path id="path17832" inkscape:connector-curvature="0" sodipodi:nodetypes="cscs" class="st15" d="M135.2,67.3
			c0.8-1.6-3.1-3.3-3.9-1.7c-1.1,2-0.8,6.9-0.8,6.9S134.4,68.8,135.2,67.3z"/>
		<path id="path40604" inkscape:connector-curvature="0" sodipodi:nodetypes="ccccccc" class="st23" d="M19.6-17.7
			C12.9-23.6,6.6-31,2.5-42.4c-6.3-37.8,6.8-43.3,24.7-33c10.4,6.8,19.3,14,26.3,22.7l-0.2,0C40.9-61-3.2-109.2,4.3-43
			C7.3-31.2,14.3-25.8,19.6-17.7L19.6-17.7z"/>
		<path id="path40606" inkscape:connector-curvature="0" sodipodi:nodetypes="ccccccc" class="st23" d="M229-17.9
			c6.7-5.8,13-13.3,17.1-24.7c6.3-37.8-6.8-43.3-24.7-33c-10.4,6.8-19.3,14-26.3,22.7l0.2,0c12.4-8.3,56.5-56.5,48.9,9.7
			C241.4-31.4,234.4-26,229-17.9L229-17.9z"/>
	</g>
	<path id="path41675" inkscape:connector-curvature="0" sodipodi:nodetypes="cc" class="st4" d="M345.1-190L293-42.4"/>
</g>
</svg>
